# Blender 3.6.4
# www.blender.org
mtllib coin.mtl
o Cylinder
v 0.053487 -0.201605 0.356557
v -0.005231 -0.200710 0.361008
v 0.057053 -0.127597 0.388719
v -0.001665 -0.126702 0.393170
v 0.059555 -0.048703 0.405857
v 0.000837 -0.047808 0.410307
v 0.060896 0.032045 0.407312
v 0.002179 0.032940 0.411763
v 0.061026 0.111545 0.393029
v 0.002308 0.112440 0.397480
v 0.059938 0.186741 0.363557
v 0.001221 0.187636 0.368008
v 0.057675 0.254743 0.320028
v -0.001042 0.255638 0.324479
v 0.054325 0.312939 0.264115
v -0.004393 0.313834 0.268566
v 0.050014 0.359091 0.197967
v -0.008703 0.359986 0.202417
v 0.044910 0.391426 0.124125
v -0.013807 0.392321 0.128576
v 0.039209 0.408702 0.045428
v -0.019509 0.409597 0.049878
v 0.033128 0.410255 -0.035101
v -0.025589 0.411150 -0.030650
v 0.026903 0.396024 -0.114366
v -0.031814 0.396919 -0.109915
v 0.020773 0.366558 -0.189321
v -0.037945 0.367453 -0.184871
v 0.014972 0.322987 -0.257087
v -0.043746 0.323882 -0.252636
v 0.009724 0.266987 -0.315058
v -0.048993 0.267882 -0.310608
v 0.005231 0.200710 -0.361008
v -0.053487 0.201605 -0.356557
v 0.001665 0.126702 -0.393170
v -0.057053 0.127597 -0.388719
v -0.000837 0.047808 -0.410307
v -0.059555 0.048703 -0.405857
v -0.002179 -0.032940 -0.411763
v -0.060896 -0.032045 -0.407312
v -0.002308 -0.112440 -0.397480
v -0.061026 -0.111545 -0.393029
v -0.001221 -0.187636 -0.368008
v -0.059938 -0.186741 -0.363557
v 0.001042 -0.255638 -0.324479
v -0.057675 -0.254743 -0.320028
v 0.004393 -0.313834 -0.268566
v -0.054325 -0.312939 -0.264115
v 0.008703 -0.359986 -0.202417
v -0.050014 -0.359091 -0.197967
v 0.013807 -0.392321 -0.128576
v -0.044910 -0.391426 -0.124125
v 0.019509 -0.409597 -0.049878
v -0.039209 -0.408702 -0.045428
v 0.025589 -0.411150 0.030650
v -0.033128 -0.410255 0.035101
v 0.031814 -0.396919 0.109915
v -0.026903 -0.396024 0.114366
v 0.037945 -0.367453 0.184871
v -0.020773 -0.366558 0.189321
v 0.043746 -0.323882 0.252636
v -0.014972 -0.322987 0.257087
v 0.048993 -0.267882 0.310608
v -0.009724 -0.266987 0.315058
v 0.058638 -0.244551 0.433155
v 0.062965 -0.154743 0.472183
v 0.004248 -0.153848 0.476634
v -0.000079 -0.243656 0.437606
v 0.066001 -0.059006 0.492980
v 0.007284 -0.058110 0.497431
v 0.067629 0.038982 0.494746
v 0.008912 0.039877 0.499197
v 0.067786 0.135454 0.477414
v 0.009069 0.136350 0.481865
v 0.066467 0.226704 0.441650
v 0.007749 0.227599 0.446100
v 0.063721 0.309225 0.388827
v 0.005003 0.310120 0.393278
v 0.059655 0.379845 0.320977
v 0.000937 0.380740 0.325428
v 0.054424 0.435850 0.240707
v -0.004293 0.436745 0.245157
v 0.048230 0.475089 0.151100
v -0.010487 0.475984 0.155551
v 0.041312 0.496053 0.055602
v -0.017406 0.496949 0.060052
v 0.033933 0.497937 -0.042119
v -0.024784 0.498833 -0.037669
v 0.026379 0.480669 -0.138307
v -0.032338 0.481564 -0.133856
v 0.018940 0.444911 -0.229265
v -0.039778 0.445806 -0.224815
v 0.011900 0.392038 -0.311499
v -0.046817 0.392934 -0.307048
v 0.005532 0.324083 -0.381847
v -0.053185 0.324978 -0.377396
v 0.000079 0.243656 -0.437606
v -0.058638 0.244551 -0.433155
v -0.004248 0.153848 -0.476634
v -0.062965 0.154743 -0.472183
v -0.007284 0.058110 -0.497431
v -0.066001 0.059006 -0.492980
v -0.008912 -0.039877 -0.499197
v -0.067629 -0.038982 -0.494746
v -0.009069 -0.136350 -0.481865
v -0.067786 -0.135454 -0.477414
v -0.007749 -0.227599 -0.446100
v -0.066467 -0.226704 -0.441650
v -0.005003 -0.310120 -0.393278
v -0.063721 -0.309225 -0.388827
v -0.000937 -0.380740 -0.325428
v -0.059655 -0.379845 -0.320977
v 0.004293 -0.436745 -0.245157
v -0.054424 -0.435850 -0.240707
v 0.010487 -0.475984 -0.155551
v -0.048230 -0.475089 -0.151100
v 0.017406 -0.496949 -0.060052
v -0.041312 -0.496053 -0.055602
v 0.024784 -0.498833 0.037669
v -0.033933 -0.497937 0.042119
v 0.032338 -0.481564 0.133856
v -0.026379 -0.480669 0.138307
v 0.039778 -0.445806 0.224815
v -0.018940 -0.444911 0.229265
v 0.046817 -0.392934 0.307048
v -0.011900 -0.392038 0.311499
v 0.053185 -0.324978 0.377396
v -0.005532 -0.324083 0.381847
v 0.006604 -0.118694 0.380619
v 0.003038 -0.192702 0.348458
v 0.009106 -0.039800 0.397757
v 0.010448 0.040948 0.399212
v 0.010577 0.120448 0.384930
v 0.009490 0.195644 0.355457
v 0.007227 0.263646 0.311928
v 0.003876 0.321841 0.256015
v -0.000434 0.367994 0.189867
v -0.005538 0.400329 0.116025
v -0.011240 0.417605 0.037328
v -0.017320 0.419158 -0.043200
v -0.023545 0.404927 -0.122466
v -0.029676 0.375460 -0.197421
v -0.035477 0.331890 -0.265187
v -0.040725 0.275890 -0.323158
v -0.045218 0.209613 -0.369108
v -0.048784 0.135605 -0.401269
v -0.051286 0.056711 -0.418407
v -0.052627 -0.024037 -0.419863
v -0.052757 -0.103537 -0.405580
v -0.051669 -0.178733 -0.376108
v -0.049407 -0.246735 -0.332579
v -0.046056 -0.304931 -0.276666
v -0.041745 -0.351083 -0.210517
v -0.036641 -0.383419 -0.136676
v -0.030940 -0.400694 -0.057978
v -0.024859 -0.402247 0.022550
v -0.018634 -0.388016 0.101815
v -0.012504 -0.358550 0.176771
v -0.006703 -0.314979 0.244537
v -0.001455 -0.258979 0.302508
v 0.042100 -0.194472 0.359226
v 0.045666 -0.120465 0.391387
v 0.048168 -0.041571 0.408525
v 0.049509 0.039178 0.409981
v 0.049639 0.118677 0.395698
v 0.048551 0.193873 0.366226
v 0.046289 0.261876 0.322697
v 0.042938 0.320071 0.266784
v 0.038627 0.366223 0.200635
v 0.033523 0.398559 0.126794
v 0.027822 0.415835 0.048096
v 0.021742 0.417387 -0.032432
v 0.015516 0.403157 -0.111697
v 0.009386 0.373690 -0.186653
v 0.003585 0.330120 -0.254419
v -0.001663 0.274120 -0.312390
v -0.006156 0.207842 -0.358340
v -0.009722 0.133835 -0.390501
v -0.012224 0.054941 -0.407639
v -0.013566 -0.025808 -0.409095
v -0.013695 -0.105307 -0.394812
v -0.012608 -0.180503 -0.365339
v -0.010345 -0.248506 -0.321810
v -0.006994 -0.306701 -0.265897
v -0.002684 -0.352853 -0.199749
v 0.002420 -0.385189 -0.125907
v 0.008122 -0.402465 -0.047210
v 0.014202 -0.404017 0.033318
v 0.020427 -0.389787 0.112584
v 0.026558 -0.360320 0.187539
v 0.032359 -0.316750 0.255305
v 0.037607 -0.260750 0.313276
vn 0.0632 -0.4003 0.9142
vn 0.0706 -0.2139 0.9743
vn 0.0753 -0.0192 0.9970
vn 0.0771 0.1762 0.9813
vn 0.0759 0.3648 0.9280
vn 0.0718 0.5394 0.8390
vn 0.0650 0.6933 0.7177
vn 0.0556 0.8205 0.5689
vn 0.0441 0.9162 0.3982
vn 0.0310 0.9767 0.2122
vn 0.0166 0.9997 0.0180
vn 0.0016 0.9842 -0.1768
vn -0.0135 0.9310 -0.3649
vn -0.0280 0.8419 -0.5389
vn -0.0415 0.7205 -0.6922
vn -0.0534 0.5714 -0.8189
vn -0.0632 0.4003 -0.9142
vn -0.0706 0.2139 -0.9743
vn -0.0753 0.0192 -0.9970
vn -0.0771 -0.1762 -0.9813
vn -0.0759 -0.3648 -0.9280
vn -0.0718 -0.5394 -0.8390
vn -0.0650 -0.6933 -0.7177
vn -0.0556 -0.8205 -0.5689
vn -0.0441 -0.9162 -0.3982
vn -0.0310 -0.9767 -0.2122
vn -0.0166 -0.9997 -0.0180
vn -0.0016 -0.9842 0.1768
vn 0.0135 -0.9310 0.3649
vn 0.0280 -0.8419 0.5389
vn 0.8612 -0.4023 0.3107
vn 0.0415 -0.7205 0.6922
vn 0.0534 -0.5714 0.8189
vn 0.4331 0.8262 -0.3602
vn 0.9970 -0.0152 -0.0756
vn -0.9970 0.0152 0.0756
vn 0.5859 0.4506 0.6735
vn -0.8645 0.1327 -0.4849
vn -0.8016 0.5758 -0.1608
vn 0.2426 -0.8824 -0.4032
vn 0.8722 -0.3172 0.3723
vn 0.3672 0.6553 0.6601
vn -0.8417 0.0237 -0.5394
vn -0.8390 0.4876 -0.2417
vn 0.4844 -0.8465 -0.2209
vn 0.8736 -0.2288 0.4296
vn 0.0676 0.8203 0.5679
vn -0.7982 -0.1053 -0.5931
vn -0.8612 0.4023 -0.3107
vn 0.6431 -0.7632 -0.0633
vn 0.8645 -0.1327 0.4849
vn -0.2426 0.8824 0.4032
vn -0.7206 -0.2620 -0.6419
vn -0.8722 0.3172 -0.3723
vn 0.7412 -0.6685 0.0618
vn 0.8417 -0.0237 0.5394
vn -0.4844 0.8465 0.2209
vn -0.5859 -0.4506 -0.6735
vn 0.8016 -0.5758 0.1608
vn 0.7982 0.1053 0.5931
vn -0.6431 0.7632 0.0633
vn -0.3672 -0.6553 -0.6601
vn 0.8390 -0.4876 0.2417
vn 0.7206 0.2620 0.6419
vn -0.8736 0.2288 -0.4296
vn -0.7412 0.6685 -0.0618
vn -0.0676 -0.8203 -0.5679
vn -0.5559 -0.7749 -0.3009
vn -0.1566 -0.5555 0.8166
vn 0.5208 0.6068 0.6004
vn -0.2155 0.0212 -0.9763
vn 0.3594 0.7706 -0.5263
vn -0.5491 -0.8238 -0.1411
vn -0.0337 -0.3970 0.9172
vn 0.5469 0.7029 0.4548
vn -0.3228 -0.1669 -0.9316
vn 0.2667 0.6810 -0.6820
vn -0.5268 -0.8497 0.0234
vn 0.0937 -0.2142 0.9723
vn 0.5559 0.7749 0.3009
vn -0.4102 -0.3379 -0.8471
vn 0.1566 0.5555 -0.8166
vn -0.4885 -0.8514 0.1912
vn 0.2155 -0.0212 0.9763
vn 0.5491 0.8238 0.1411
vn -0.4759 -0.4853 -0.7335
vn -0.4331 -0.8262 0.3602
vn 0.3228 0.1669 0.9316
vn 0.5268 0.8497 -0.0234
vn -0.5208 -0.6068 -0.6004
vn -0.3594 -0.7706 0.5263
vn 0.4102 0.3379 0.8471
vn 0.0337 0.3970 -0.9172
vn 0.4885 0.8514 -0.1912
vn -0.5469 -0.7029 -0.4548
vn -0.2668 -0.6810 0.6820
vn 0.4759 0.4853 0.7335
vn -0.0937 0.2142 -0.9723
vt 1.000000 0.500000
vt 1.000000 1.000000
vt 0.968750 1.000000
vt 0.968750 0.500000
vt 0.937500 1.000000
vt 0.937500 0.500000
vt 0.906250 1.000000
vt 0.906250 0.500000
vt 0.875000 1.000000
vt 0.875000 0.500000
vt 0.843750 1.000000
vt 0.843750 0.500000
vt 0.812500 1.000000
vt 0.812500 0.500000
vt 0.781250 1.000000
vt 0.781250 0.500000
vt 0.750000 1.000000
vt 0.750000 0.500000
vt 0.718750 1.000000
vt 0.718750 0.500000
vt 0.687500 1.000000
vt 0.687500 0.500000
vt 0.656250 1.000000
vt 0.656250 0.500000
vt 0.625000 1.000000
vt 0.625000 0.500000
vt 0.593750 1.000000
vt 0.593750 0.500000
vt 0.562500 1.000000
vt 0.562500 0.500000
vt 0.531250 1.000000
vt 0.531250 0.500000
vt 0.500000 1.000000
vt 0.500000 0.500000
vt 0.468750 1.000000
vt 0.468750 0.500000
vt 0.437500 1.000000
vt 0.437500 0.500000
vt 0.406250 1.000000
vt 0.406250 0.500000
vt 0.375000 1.000000
vt 0.375000 0.500000
vt 0.343750 1.000000
vt 0.343750 0.500000
vt 0.312500 1.000000
vt 0.312500 0.500000
vt 0.281250 1.000000
vt 0.281250 0.500000
vt 0.250000 1.000000
vt 0.250000 0.500000
vt 0.218750 1.000000
vt 0.218750 0.500000
vt 0.187500 1.000000
vt 0.187500 0.500000
vt 0.156250 1.000000
vt 0.156250 0.500000
vt 0.125000 1.000000
vt 0.125000 0.500000
vt 0.093750 1.000000
vt 0.093750 0.500000
vt 0.062500 1.000000
vt 0.062500 0.500000
vt 0.288584 0.056024
vt 0.325686 0.067279
vt 0.031250 1.000000
vt 0.031250 0.500000
vt 0.000000 1.000000
vt 0.000000 0.500000
vt 0.610151 0.389849
vt 0.640122 0.414445
vt 0.788584 0.443976
vt 0.750000 0.447776
vt 0.750000 0.490000
vt 0.796822 0.485388
vt 0.250000 0.447776
vt 0.288584 0.443976
vt 0.296822 0.485388
vt 0.250000 0.490000
vt 0.825686 0.432721
vt 0.841844 0.471731
vt 0.325686 0.432721
vt 0.341844 0.471731
vt 0.859878 0.414445
vt 0.883337 0.449553
vt 0.359878 0.414445
vt 0.383337 0.449553
vt 0.889849 0.389849
vt 0.919706 0.419706
vt 0.389849 0.389849
vt 0.419706 0.419706
vt 0.914445 0.359879
vt 0.949553 0.383337
vt 0.414445 0.359878
vt 0.449553 0.383337
vt 0.932721 0.325686
vt 0.971731 0.341844
vt 0.432721 0.325686
vt 0.471731 0.341844
vt 0.943976 0.288584
vt 0.985388 0.296822
vt 0.443976 0.288584
vt 0.485388 0.296822
vt 0.947776 0.250000
vt 0.990000 0.250000
vt 0.447776 0.250000
vt 0.490000 0.250000
vt 0.943976 0.211416
vt 0.985388 0.203178
vt 0.443976 0.211416
vt 0.485388 0.203178
vt 0.932721 0.174314
vt 0.971731 0.158156
vt 0.432721 0.174314
vt 0.471731 0.158156
vt 0.914445 0.140122
vt 0.949553 0.116663
vt 0.414445 0.140122
vt 0.449553 0.116663
vt 0.889849 0.110151
vt 0.919706 0.080294
vt 0.389849 0.110151
vt 0.419706 0.080294
vt 0.859878 0.085555
vt 0.883337 0.050447
vt 0.359879 0.085555
vt 0.383337 0.050447
vt 0.825686 0.067279
vt 0.841844 0.028269
vt 0.341844 0.028269
vt 0.788584 0.056024
vt 0.796822 0.014612
vt 0.296822 0.014612
vt 0.750000 0.052224
vt 0.750000 0.010000
vt 0.250000 0.052224
vt 0.250000 0.010000
vt 0.711416 0.056024
vt 0.703178 0.014612
vt 0.211416 0.056024
vt 0.203178 0.014612
vt 0.674314 0.067279
vt 0.658156 0.028269
vt 0.174314 0.067279
vt 0.158156 0.028269
vt 0.640122 0.085555
vt 0.616663 0.050447
vt 0.140122 0.085555
vt 0.116663 0.050447
vt 0.610151 0.110151
vt 0.580294 0.080294
vt 0.110151 0.110151
vt 0.080294 0.080294
vt 0.585555 0.140122
vt 0.550447 0.116663
vt 0.085555 0.140122
vt 0.050447 0.116663
vt 0.567279 0.174314
vt 0.528269 0.158156
vt 0.067279 0.174314
vt 0.028269 0.158156
vt 0.556024 0.211416
vt 0.514612 0.203178
vt 0.056024 0.211416
vt 0.014612 0.203178
vt 0.552224 0.250000
vt 0.510000 0.250000
vt 0.052224 0.250000
vt 0.010000 0.250000
vt 0.556024 0.288584
vt 0.514612 0.296822
vt 0.056024 0.288584
vt 0.014612 0.296822
vt 0.567279 0.325686
vt 0.528269 0.341844
vt 0.067279 0.325686
vt 0.028269 0.341844
vt 0.585555 0.359878
vt 0.550447 0.383337
vt 0.085555 0.359878
vt 0.050447 0.383337
vt 0.580294 0.419706
vt 0.110151 0.389849
vt 0.080294 0.419706
vt 0.616663 0.449553
vt 0.140122 0.414445
vt 0.116663 0.449553
vt 0.674314 0.432721
vt 0.658156 0.471731
vt 0.174314 0.432721
vt 0.158156 0.471731
vt 0.711416 0.443976
vt 0.703178 0.485388
vt 0.211416 0.443976
vt 0.203178 0.485388
s 0
f 65/1/1 66/4/1 67/3/1 68/2/1
f 66/4/2 69/6/2 70/5/2 67/3/2
f 69/6/3 71/8/3 72/7/3 70/5/3
f 71/8/4 73/10/4 74/9/4 72/7/4
f 73/10/5 75/12/5 76/11/5 74/9/5
f 75/12/6 77/14/6 78/13/6 76/11/6
f 77/14/7 79/16/7 80/15/7 78/13/7
f 79/16/8 81/18/8 82/17/8 80/15/8
f 81/18/9 83/20/9 84/19/9 82/17/9
f 83/20/10 85/22/10 86/21/10 84/19/10
f 85/22/11 87/24/11 88/23/11 86/21/11
f 87/24/12 89/26/12 90/25/12 88/23/12
f 89/26/13 91/28/13 92/27/13 90/25/13
f 91/28/14 93/30/14 94/29/14 92/27/14
f 93/30/15 95/32/15 96/31/15 94/29/15
f 95/32/16 97/34/16 98/33/16 96/31/16
f 97/34/17 99/36/17 100/35/17 98/33/17
f 99/36/18 101/38/18 102/37/18 100/35/18
f 101/38/19 103/40/19 104/39/19 102/37/19
f 103/40/20 105/42/20 106/41/20 104/39/20
f 105/42/21 107/44/21 108/43/21 106/41/21
f 107/44/22 109/46/22 110/45/22 108/43/22
f 109/46/23 111/48/23 112/47/23 110/45/23
f 111/48/24 113/50/24 114/49/24 112/47/24
f 113/50/25 115/52/25 116/51/25 114/49/25
f 115/52/26 117/54/26 118/53/26 116/51/26
f 117/54/27 119/56/27 120/55/27 118/53/27
f 119/56/28 121/58/28 122/57/28 120/55/28
f 121/58/29 123/60/29 124/59/29 122/57/29
f 123/60/30 125/62/30 126/61/30 124/59/30
f 32/63/31 144/63/31 143/64/31 30/64/31
f 125/62/32 127/66/32 128/65/32 126/61/32
f 127/66/33 65/68/33 68/67/33 128/65/33
f 57/69/34 189/69/34 190/70/34 59/70/34
f 3/71/35 66/74/35 65/73/35 1/72/35
f 2/75/36 68/78/36 67/77/36 4/76/36
f 5/79/35 69/80/35 66/74/35 3/71/35
f 4/76/36 67/77/36 70/82/36 6/81/36
f 7/83/35 71/84/35 69/80/35 5/79/35
f 6/81/36 70/82/36 72/86/36 8/85/36
f 9/87/35 73/88/35 71/84/35 7/83/35
f 8/85/36 72/86/36 74/90/36 10/89/36
f 11/91/35 75/92/35 73/88/35 9/87/35
f 10/89/36 74/90/36 76/94/36 12/93/36
f 13/95/35 77/96/35 75/92/35 11/91/35
f 12/93/36 76/94/36 78/98/36 14/97/36
f 15/99/35 79/100/35 77/96/35 13/95/35
f 14/97/36 78/98/36 80/102/36 16/101/36
f 17/103/35 81/104/35 79/100/35 15/99/35
f 16/101/36 80/102/36 82/106/36 18/105/36
f 19/107/35 83/108/35 81/104/35 17/103/35
f 18/105/36 82/106/36 84/110/36 20/109/36
f 21/111/35 85/112/35 83/108/35 19/107/35
f 20/109/36 84/110/36 86/114/36 22/113/36
f 23/115/35 87/116/35 85/112/35 21/111/35
f 22/113/36 86/114/36 88/118/36 24/117/36
f 25/119/35 89/120/35 87/116/35 23/115/35
f 24/117/36 88/118/36 90/122/36 26/121/36
f 27/123/35 91/124/35 89/120/35 25/119/35
f 26/121/36 90/122/36 92/126/36 28/125/36
f 29/127/35 93/128/35 91/124/35 27/123/35
f 28/125/36 92/126/36 94/129/36 30/64/36
f 31/130/35 95/131/35 93/128/35 29/127/35
f 30/64/36 94/129/36 96/132/36 32/63/36
f 33/133/35 97/134/35 95/131/35 31/130/35
f 32/63/36 96/132/36 98/136/36 34/135/36
f 35/137/35 99/138/35 97/134/35 33/133/35
f 34/135/36 98/136/36 100/140/36 36/139/36
f 37/141/35 101/142/35 99/138/35 35/137/35
f 36/139/36 100/140/36 102/144/36 38/143/36
f 39/145/35 103/146/35 101/142/35 37/141/35
f 38/143/36 102/144/36 104/148/36 40/147/36
f 41/149/35 105/150/35 103/146/35 39/145/35
f 40/147/36 104/148/36 106/152/36 42/151/36
f 43/153/35 107/154/35 105/150/35 41/149/35
f 42/151/36 106/152/36 108/156/36 44/155/36
f 45/157/35 109/158/35 107/154/35 43/153/35
f 44/155/36 108/156/36 110/160/36 46/159/36
f 47/161/35 111/162/35 109/158/35 45/157/35
f 46/159/36 110/160/36 112/164/36 48/163/36
f 49/165/35 113/166/35 111/162/35 47/161/35
f 48/163/36 112/164/36 114/168/36 50/167/36
f 51/169/35 115/170/35 113/166/35 49/165/35
f 50/167/36 114/168/36 116/172/36 52/171/36
f 53/173/35 117/174/35 115/170/35 51/169/35
f 52/171/36 116/172/36 118/176/36 54/175/36
f 55/177/35 119/178/35 117/174/35 53/173/35
f 54/175/36 118/176/36 120/180/36 56/179/36
f 57/69/35 121/181/35 119/178/35 55/177/35
f 56/179/36 120/180/36 122/183/36 58/182/36
f 59/70/35 123/184/35 121/181/35 57/69/35
f 58/182/36 122/183/36 124/186/36 60/185/36
f 61/187/35 125/188/35 123/184/35 59/70/35
f 60/185/36 124/186/36 126/190/36 62/189/36
f 63/191/35 127/192/35 125/188/35 61/187/35
f 62/189/36 126/190/36 128/194/36 64/193/36
f 1/72/35 65/73/35 127/192/35 63/191/35
f 64/193/36 128/194/36 68/78/36 2/75/36
f 129/76/36 131/81/36 132/85/36 133/89/36 134/93/36 135/97/36 136/101/36 137/105/36 138/109/36 139/113/36 140/117/36 141/121/36 142/125/36 143/64/36 144/63/36 145/135/36 146/139/36 147/143/36 148/147/36 149/151/36 150/155/36 151/159/36 152/163/36 153/167/36 154/171/36 155/175/36 156/179/36 157/182/36 158/185/36 159/189/36 160/193/36 130/75/36
f 46/159/37 151/159/37 150/155/37 44/155/37
f 6/81/38 131/81/38 129/76/38 4/76/38
f 60/185/39 158/185/39 157/182/39 58/182/39
f 20/109/40 138/109/40 137/105/40 18/105/40
f 34/135/41 145/135/41 144/63/41 32/63/41
f 48/163/42 152/163/42 151/159/42 46/159/42
f 8/85/43 132/85/43 131/81/43 6/81/43
f 62/189/44 159/189/44 158/185/44 60/185/44
f 22/113/45 139/113/45 138/109/45 20/109/45
f 36/139/46 146/139/46 145/135/46 34/135/46
f 50/167/47 153/167/47 152/163/47 48/163/47
f 10/89/48 133/89/48 132/85/48 8/85/48
f 64/193/49 160/193/49 159/189/49 62/189/49
f 24/117/50 140/117/50 139/113/50 22/113/50
f 38/143/51 147/143/51 146/139/51 36/139/51
f 52/171/52 154/171/52 153/167/52 50/167/52
f 12/93/53 134/93/53 133/89/53 10/89/53
f 2/75/54 130/75/54 160/193/54 64/193/54
f 26/121/55 141/121/55 140/117/55 24/117/55
f 40/147/56 148/147/56 147/143/56 38/143/56
f 54/175/57 155/175/57 154/171/57 52/171/57
f 14/97/58 135/97/58 134/93/58 12/93/58
f 28/125/59 142/125/59 141/121/59 26/121/59
f 42/151/60 149/151/60 148/147/60 40/147/60
f 56/179/61 156/179/61 155/175/61 54/175/61
f 16/101/62 136/101/62 135/97/62 14/97/62
f 30/64/63 143/64/63 142/125/63 28/125/63
f 44/155/64 150/155/64 149/151/64 42/151/64
f 4/76/65 129/76/65 130/75/65 2/75/65
f 58/182/66 157/182/66 156/179/66 56/179/66
f 18/105/67 137/105/67 136/101/67 16/101/67
f 161/72/35 192/191/35 191/187/35 190/70/35 189/69/35 188/177/35 187/173/35 186/169/35 185/165/35 184/161/35 183/157/35 182/153/35 181/149/35 180/145/35 179/141/35 178/137/35 177/133/35 176/130/35 175/127/35 174/123/35 173/119/35 172/115/35 171/111/35 170/107/35 169/103/35 168/99/35 167/95/35 166/91/35 165/87/35 164/83/35 163/79/35 162/71/35
f 17/103/68 169/103/68 170/107/68 19/107/68
f 31/130/69 176/130/69 177/133/69 33/133/69
f 45/157/70 183/157/70 184/161/70 47/161/70
f 5/79/71 163/79/71 164/83/71 7/83/71
f 59/70/72 190/70/72 191/187/72 61/187/72
f 19/107/73 170/107/73 171/111/73 21/111/73
f 33/133/74 177/133/74 178/137/74 35/137/74
f 47/161/75 184/161/75 185/165/75 49/165/75
f 7/83/76 164/83/76 165/87/76 9/87/76
f 61/187/77 191/187/77 192/191/77 63/191/77
f 21/111/78 171/111/78 172/115/78 23/115/78
f 35/137/79 178/137/79 179/141/79 37/141/79
f 49/165/80 185/165/80 186/169/80 51/169/80
f 9/87/81 165/87/81 166/91/81 11/91/81
f 63/191/82 192/191/82 161/72/82 1/72/82
f 23/115/83 172/115/83 173/119/83 25/119/83
f 37/141/84 179/141/84 180/145/84 39/145/84
f 51/169/85 186/169/85 187/173/85 53/173/85
f 11/91/86 166/91/86 167/95/86 13/95/86
f 25/119/87 173/119/87 174/123/87 27/123/87
f 39/145/88 180/145/88 181/149/88 41/149/88
f 53/173/89 187/173/89 188/177/89 55/177/89
f 13/95/90 167/95/90 168/99/90 15/99/90
f 27/123/91 174/123/91 175/127/91 29/127/91
f 41/149/92 181/149/92 182/153/92 43/153/92
f 1/72/93 161/72/93 162/71/93 3/71/93
f 55/177/94 188/177/94 189/69/94 57/69/94
f 15/99/95 168/99/95 169/103/95 17/103/95
f 29/127/96 175/127/96 176/130/96 31/130/96
f 43/153/97 182/153/97 183/157/97 45/157/97
f 3/71/98 162/71/98 163/79/98 5/79/98
