# Blender 3.6.5
# www.blender.org
mtllib forest_tree_02.mtl
o tree
v 0.000000 1.756993 -3.641723
v 1.859697 2.745775 -2.559654
v 3.463485 1.756993 -1.125354
v 0.000000 14.787477 0.000000
v 0.000000 2.745775 3.163907
v -2.140551 1.756993 2.946216
v 0.000000 4.533621 -2.736531
v 0.000000 6.212475 -2.344769
v 0.000001 8.491838 -1.632401
v 0.000000 10.440929 -1.186775
v -0.000000 12.410086 -0.557458
v 0.334913 12.602107 -0.460967
v 0.632838 10.476836 -0.871027
v 1.036739 8.329329 -1.426950
v 1.284094 6.512979 -1.767402
v 1.719928 4.096372 -2.367277
v 0.530174 12.410086 -0.172264
v 1.128690 10.440930 -0.366733
v 1.552506 8.491838 -0.504440
v 2.230007 6.212476 -0.724574
v 2.602596 4.533622 -0.845635
v 0.541900 12.602107 0.176074
v 1.023953 10.476836 0.332702
v 1.677480 8.329328 0.545046
v 2.077706 6.512979 0.675088
v 2.782901 4.096372 0.904219
v 0.327666 12.410086 0.450993
v 0.697564 10.440940 0.960117
v 0.959501 8.491838 1.320641
v 1.378221 6.212476 1.896957
v 1.608493 4.533622 2.213900
v -0.000000 12.602107 0.569787
v 0.000001 10.476836 1.076649
v 0.000000 8.329329 1.763806
v -0.000000 6.512980 2.184630
v 0.000000 4.096372 2.926116
v -0.327666 12.410086 0.450993
v -0.697569 10.440930 0.960121
v -0.959502 8.491838 1.320640
v -1.378220 6.212475 1.896958
v -1.608493 4.533622 2.213900
v -0.541899 12.602107 0.176074
v -1.023953 10.476836 0.332703
v -1.677479 8.329329 0.545046
v -2.077707 6.512979 0.675088
v -2.782902 4.096372 0.904219
v -0.530174 12.410086 -0.172264
v -1.128690 10.440931 -0.366734
v -1.552506 8.491838 -0.504440
v -2.230008 6.212475 -0.724573
v -2.602596 4.533621 -0.845634
v -0.334912 12.602107 -0.460967
v -0.632838 10.476836 -0.871026
v -1.036740 8.329328 -1.426949
v -1.284093 6.512979 -1.767403
v -1.719927 4.096372 -2.367277
v 1.385399 4.024437 -1.906838
v 1.973902 4.338593 -0.641359
v 2.241623 4.024437 0.728347
v 1.219938 4.338593 1.679101
v 0.000000 4.024437 2.356982
v -1.219938 4.338593 1.679101
v -2.241623 4.024436 0.728347
v -1.973902 4.338593 -0.641360
v -1.385399 4.024436 -1.906838
v 0.000000 4.338593 -2.075483
v 0.000000 6.248059 -1.784765
v 0.957816 6.474418 -1.318320
v 1.697412 6.248060 -0.551523
v 1.549778 6.474419 0.503554
v 1.049059 6.248060 1.443905
v 0.000001 6.474419 1.629533
v -1.049059 6.248060 1.443905
v -1.549778 6.474419 0.503554
v -1.697412 6.248060 -0.551523
v -0.957816 6.474419 -1.318320
v 0.000000 8.591690 -1.242855
v 0.751139 8.489450 -1.033853
v 1.182026 8.591690 -0.384064
v 1.215368 8.489450 0.394897
v 0.730532 8.591690 1.005491
v -0.000001 8.489450 1.277913
v -0.730532 8.591690 1.005491
v -1.215368 8.489450 0.394896
v -1.182026 8.591690 -0.384063
v -0.751139 8.489450 -1.033853
v 0.000000 10.749950 -0.740860
v 0.469599 10.679751 -0.646348
v 0.704594 10.749959 -0.228937
v 0.759834 10.679744 0.246885
v 0.435462 10.749959 0.599365
v 0.000001 10.679746 0.798936
v -0.435463 10.749959 0.599364
v -0.759834 10.679744 0.246885
v -0.704594 10.749959 -0.228937
v -0.469604 10.679744 -0.646353
v 0.000000 12.714081 -0.418156
v 0.169871 13.062642 -0.233807
v 0.397689 12.714081 -0.129217
v 0.274857 13.062642 0.089307
v 0.245787 12.714075 0.338297
v 0.000000 13.062642 0.289002
v -0.245785 12.714083 0.338294
v -0.274856 13.062646 0.089306
v -0.397690 12.714081 -0.129218
v -0.169870 13.062646 -0.233806
v 3.009054 2.745775 0.977701
v 2.140551 1.756993 2.946216
v -3.009054 2.745775 0.977701
v -3.463485 1.756993 -1.125354
v -1.859697 2.745775 -2.559654
v 0.000000 3.568923 0.000000
vn 0.1480 0.2258 -0.9629
vn 0.8700 0.2258 -0.4383
vn 0.9615 0.2258 -0.1568
vn 0.6857 0.2258 0.6920
vn 0.4463 0.2258 0.8660
vn -0.4463 0.2258 0.8660
vn -0.6857 0.2258 0.6920
vn -0.9615 0.2258 -0.1568
vn -0.8700 0.2258 -0.4383
vn -0.1480 0.2258 -0.9629
vn 0.1801 -0.9435 -0.2783
vn -0.2009 -0.9777 0.0621
vn 0.1971 -0.9497 0.2435
vn 0.2311 -0.7997 0.5542
vn 0.0314 -0.4375 0.8987
vn -0.3203 -0.9435 0.0853
vn 0.1211 -0.9777 -0.1718
vn 0.1707 -0.9497 0.2627
vn 0.4557 -0.7997 0.3911
vn 0.8450 -0.4375 0.3076
vn -0.2090 -0.9435 -0.2573
vn -0.0030 -0.9777 0.2102
vn 0.2925 -0.9497 -0.1122
vn 0.5985 -0.7997 -0.0486
vn 0.8644 -0.4375 0.2478
vn -0.0179 -0.9435 0.3310
vn -0.1260 -0.9777 -0.1683
vn 0.3026 -0.9497 -0.0812
vn 0.5127 -0.7997 -0.3125
vn 0.5536 -0.4375 -0.7086
vn -0.3093 -0.9435 0.1193
vn 0.1990 -0.9777 0.0679
vn -0.0163 -0.9497 -0.3129
vn 0.1388 -0.7997 -0.5842
vn 0.5028 -0.4375 -0.7455
vn 0.3093 -0.9435 0.1193
vn -0.1990 -0.9777 0.0679
vn 0.0163 -0.9497 -0.3129
vn -0.1388 -0.7997 -0.5842
vn -0.5028 -0.4375 -0.7455
vn 0.0179 -0.9435 0.3310
vn 0.1260 -0.9777 -0.1683
vn -0.3026 -0.9497 -0.0812
vn -0.5127 -0.7997 -0.3125
vn -0.5536 -0.4375 -0.7086
vn 0.2090 -0.9435 -0.2573
vn 0.0030 -0.9777 0.2102
vn -0.2925 -0.9497 -0.1122
vn -0.5985 -0.7997 -0.0486
vn -0.8644 -0.4375 0.2478
vn 0.3203 -0.9435 0.0853
vn -0.1211 -0.9777 -0.1719
vn -0.1707 -0.9497 0.2627
vn -0.4557 -0.7997 0.3911
vn -0.8450 -0.4375 0.3076
vn -0.1801 -0.9435 -0.2783
vn 0.2009 -0.9777 0.0621
vn -0.1971 -0.9497 0.2435
vn -0.2311 -0.7997 0.5542
vn -0.0314 -0.4375 0.8987
vn 0.2164 0.5064 -0.8347
vn 0.7270 0.5064 -0.4638
vn 0.8607 0.5064 -0.0521
vn 0.6657 0.5064 0.5481
vn 0.3155 0.5064 0.8025
vn -0.3155 0.5064 0.8025
vn -0.6657 0.5064 0.5481
vn -0.8607 0.5064 -0.0521
vn -0.7270 0.5064 -0.4638
vn -0.2164 0.5064 -0.8347
vn 0.2970 0.4635 -0.8348
vn 0.7022 0.4635 -0.5405
vn 0.8858 0.4635 0.0245
vn 0.7310 0.4635 0.5008
vn 0.2504 0.4635 0.8500
vn -0.2504 0.4635 0.8500
vn -0.7310 0.4635 0.5008
vn -0.8858 0.4635 0.0245
vn -0.7022 0.4635 -0.5405
vn -0.2970 0.4635 -0.8348
vn 0.2958 0.4015 -0.8668
vn 0.7330 0.4015 -0.5492
vn 0.9158 0.4015 0.0135
vn 0.7488 0.4015 0.5274
vn 0.2702 0.4015 0.8751
vn -0.2702 0.4015 0.8751
vn -0.7488 0.4015 0.5274
vn -0.9158 0.4015 0.0135
vn -0.7330 0.4015 -0.5492
vn -0.2958 0.4015 -0.8668
vn 0.2352 0.3570 -0.9040
vn 0.7871 0.3570 -0.5030
vn 0.9325 0.3570 -0.0557
vn 0.7216 0.3570 0.5932
vn 0.3411 0.3570 0.8696
vn -0.3411 0.3570 0.8696
vn -0.7216 0.3570 0.5932
vn -0.9325 0.3570 -0.0557
vn -0.7871 0.3570 -0.5030
vn -0.2352 0.3570 -0.9040
vn 0.4024 0.2896 -0.8685
vn 0.7016 0.2896 -0.6510
vn 0.9503 0.2896 0.1143
vn 0.8360 0.2896 0.4661
vn 0.1850 0.2896 0.9391
vn -0.1850 0.2896 0.9391
vn -0.8360 0.2896 0.4661
vn -0.9503 0.2896 0.1143
vn -0.7016 0.2896 -0.6510
vn -0.4024 0.2896 -0.8685
vn 0.4795 -0.8750 -0.0670
vn 0.4273 -0.8750 -0.2276
vn -0.3485 -0.8750 0.3361
vn -0.2119 -0.8750 0.4353
vn 0.0844 -0.8750 -0.4768
vn -0.0844 -0.8750 -0.4768
vn 0.2119 -0.8750 0.4353
vn 0.3485 -0.8750 0.3361
vn -0.4273 -0.8750 -0.2276
vn -0.4795 -0.8750 -0.0670
vt 0.550697 0.990486
vt 0.569601 0.864966
vt 0.569601 0.982609
vt 0.467152 0.862997
vt 0.512197 0.755663
vt 0.479654 0.878356
vt 0.499308 0.872597
vt 0.512197 0.881098
vt 0.926072 0.641824
vt 0.926072 0.516388
vt 0.938961 0.633323
vt 0.958615 0.639082
vt 0.971117 0.623723
vt 0.569601 0.976590
vt 0.602616 0.864966
vt 0.583711 0.990486
vt 0.602616 0.982609
vt 0.536587 0.976590
vt 0.397943 0.029479
vt 0.403301 -0.000000
vt 0.483601 0.048799
vt 0.457548 0.073623
vt 0.588783 0.445499
vt 0.563245 0.459155
vt 0.547610 0.390511
vt 0.575348 0.394069
vt 0.766779 0.734306
vt 0.768749 0.710562
vt 0.815555 0.741007
vt 0.802678 0.754310
vt 0.733030 0.895569
vt 0.730588 0.882959
vt 0.766215 0.889263
vt 0.756385 0.905263
vt 0.246004 0.377276
vt 0.229239 0.393589
vt 0.219690 0.380461
vt 0.231660 0.375209
vt 0.334541 0.050381
vt 0.321416 0.018154
vt 0.624418 0.489883
vt 0.612077 0.516388
vt 0.728949 0.740762
vt 0.718717 0.723213
vt 0.711700 0.905275
vt 0.694634 0.889282
vt 0.234034 0.408312
vt 0.246004 0.413563
vt 0.236455 0.426691
vt 0.219690 0.410379
vt 0.271907 0.091149
vt 0.246831 0.076561
vt 0.675893 0.488190
vt 0.680029 0.516388
vt 0.698613 0.768085
vt 0.674666 0.757186
vt 0.694940 0.924052
vt 0.679258 0.921343
vt 0.221872 0.393589
vt 0.240757 0.393589
vt 0.277974 0.161490
vt 0.246831 0.164652
vt 0.729722 0.469725
vt 0.750422 0.489905
vt 0.695409 0.807467
vt 0.674666 0.810825
vt 0.699235 0.947999
vt 0.674666 0.957722
vt 0.234034 0.441414
vt 0.246004 0.446665
vt 0.236455 0.459793
vt 0.219690 0.443481
vt 0.294000 0.233641
vt 0.274259 0.253461
vt 0.744349 0.415718
vt 0.771805 0.419230
vt 0.710980 0.845281
vt 0.691735 0.863733
vt 0.711279 0.970117
vt 0.701277 0.983421
vt 0.221872 0.426691
vt 0.240757 0.426691
vt 0.366019 0.253402
vt 0.362920 0.285839
vt 0.745734 0.361451
vt 0.771458 0.347659
vt 0.748410 0.862241
vt 0.744278 0.882767
vt 0.736215 0.974392
vt 0.733905 1.000000
vt 0.234034 0.474516
vt 0.246004 0.479768
vt 0.236455 0.492896
vt 0.219690 0.476583
vt 0.433690 0.260037
vt 0.447680 0.286230
vt 0.699548 0.328238
vt 0.711741 0.301949
vt 0.786789 0.859211
vt 0.796368 0.882959
vt 0.759467 0.970104
vt 0.766215 0.983403
vt 0.221872 0.459793
vt 0.240757 0.459793
vt 0.477002 0.199098
vt 0.509252 0.214238
vt 0.650325 0.314694
vt 0.646113 0.286230
vt 0.814705 0.829388
vt 0.831352 0.839617
vt 0.715734 0.236144
vt 0.742152 0.243435
vt 0.721662 0.272090
vt 0.708811 0.259693
vt 0.542188 0.257643
vt 0.547479 0.273605
vt 0.527432 0.268757
vt 0.527432 0.241342
vt 0.497930 0.133857
vt 0.527432 0.129582
vt 0.603402 0.346643
vt 0.582844 0.326624
vt 0.821274 0.790624
vt 0.843965 0.788295
vt 0.721869 0.212377
vt 0.739261 0.208327
vt 0.544286 0.235756
vt 0.560661 0.257742
vt 0.708811 0.196032
vt 0.731061 0.179180
vt 0.224937 0.360486
vt 0.243822 0.360486
vt 0.858377 0.146674
vt 0.734079 0.054546
vt 0.784670 -0.000000
vt 0.858377 0.023120
vt 0.314176 0.566881
vt 0.246831 0.525620
vt 0.247935 0.458943
vt 0.397221 0.499579
vt 0.275234 0.389737
vt 0.352303 0.384479
vt 0.247935 0.337352
vt 0.397221 0.286230
vt 0.397221 0.286230
vt 0.546507 0.337352
vt 0.519207 0.389737
vt 0.442139 0.384479
vt 0.546507 0.458943
vt 0.397221 0.499579
vt 0.547610 0.525620
vt 0.480266 0.566881
vt 0.047736 0.775423
vt -0.000000 0.712501
vt 0.025268 0.650788
vt 0.149566 0.742916
vt 0.075859 0.596242
vt 0.149566 0.619362
vt 0.756546 0.179180
vt 0.708811 0.116259
vt 0.547199 0.709809
vt 0.648349 0.709809
vt 0.670160 0.762231
vt 0.536587 0.803943
vt 0.674666 0.811003
vt 0.587550 0.864967
vt 0.729080 0.516389
vt 0.830231 0.516389
vt 0.852042 0.568811
vt 0.718468 0.610522
vt 0.856547 0.617582
vt 0.769431 0.671546
vt 0.089623 0.596242
vt 0.000000 0.546554
vt 0.002142 0.497621
vt 0.137576 0.532826
vt 0.021393 0.444206
vt 0.122425 0.439315
vt 0.002142 0.401646
vt 0.137576 0.360486
vt 0.527432 0.000000
vt 0.662866 0.041160
vt 0.643615 0.083719
vt 0.542583 0.078829
vt 0.662866 0.137135
vt 0.527432 0.172339
vt 0.665008 0.186067
vt 0.575384 0.235756
vt 0.991141 0.137367
vt 0.858377 0.105821
vt 0.868165 0.065909
vt 0.981353 0.062835
vt 0.858377 0.033009
vt 0.991141 0.000000
vt 0.976729 0.989796
vt 0.843965 0.958249
vt 0.853753 0.918337
vt 0.966941 0.915264
vt 0.843965 0.885437
vt 0.976729 0.852428
vt 0.385207 0.566881
vt 0.517971 0.599890
vt 0.508183 0.632790
vt 0.394995 0.629717
vt 0.517971 0.672702
vt 0.385207 0.704248
vt 0.523583 0.706463
vt 0.421321 0.755663
vt 0.349093 0.755663
vt 0.246831 0.706463
vt 0.252443 0.672702
vt 0.385207 0.704249
vt 0.262231 0.632790
vt 0.375419 0.629717
vt 0.252443 0.599890
vt 0.385207 0.566881
vt 0.925824 0.413020
vt 0.927184 0.286230
vt 0.952385 0.288051
vt 0.981451 0.417468
vt 0.000000 0.775423
vt 0.129417 0.803185
vt 0.131238 0.825039
vt 0.004448 0.823679
vt 0.129416 0.850240
vt 0.000000 0.879306
vt 0.140119 0.867524
vt 0.024015 0.917289
vt 0.960069 0.852428
vt 0.843965 0.802663
vt 0.854668 0.785379
vt 0.984084 0.814445
vt 0.852846 0.760179
vt 0.979636 0.758818
vt 0.854668 0.738324
vt 0.984084 0.710562
vt 0.858377 0.268606
vt 0.886139 0.139190
vt 0.907994 0.137367
vt 0.906633 0.264158
vt 0.933194 0.139190
vt 0.962260 0.268606
vt 0.877568 0.417468
vt 0.905330 0.288052
vt 0.397628 0.896218
vt 0.423839 0.773588
vt 0.437332 0.755663
vt 0.434306 0.896775
vt 0.448336 0.773784
vt 0.467152 0.896775
vt 0.856547 0.656942
vt 0.882761 0.534313
vt 0.896254 0.516388
vt 0.893225 0.657500
vt 0.907258 0.534510
vt 0.926072 0.657500
vt 0.149566 0.863959
vt 0.209740 0.755057
vt 0.226330 0.741857
vt 0.180387 0.875315
vt 0.232794 0.763341
vt 0.214996 0.887471
vt 0.243188 0.744214
vt 0.243188 0.884095
vt 0.149566 0.738480
vt 0.149566 0.598599
vt 0.159960 0.617726
vt 0.177757 0.741857
vt 0.166423 0.596242
vt 0.212367 0.729700
vt 0.183014 0.609442
vt 0.243188 0.718345
vt 0.127955 0.000000
vt 0.246831 0.021359
vt 0.207055 0.173015
vt 0.066960 0.270804
vt 0.000000 0.177448
vt 0.274266 0.907318
vt 0.246831 0.787022
vt 0.397628 0.755663
vt 0.219690 0.494608
vt 0.137576 0.572419
vt 0.137576 0.360486
vt 0.066960 0.077243
vt 0.246831 0.334547
vt 0.127955 0.360486
vt 0.771805 0.314426
vt 0.877568 0.286230
vt 0.877568 0.437353
vt 0.397628 0.909685
s 0
usemtl Material.001
f 11/1/1 4/2/1 12/3/1
f 12/4/2 4/5/2 17/6/2
f 17/6/3 4/5/3 22/7/3
f 22/7/4 4/5/4 27/8/4
f 27/9/5 4/10/5 32/11/5
f 32/11/6 4/10/6 37/12/6
f 37/12/7 4/10/7 42/13/7
f 42/14/8 4/15/8 47/16/8
f 47/16/9 4/15/9 52/17/9
f 52/18/10 4/2/10 11/1/10
f 65/19/11 56/20/11 7/21/11 66/22/11
f 76/23/12 55/24/12 8/25/12 67/26/12
f 86/27/13 54/28/13 9/29/13 77/30/13
f 96/31/14 53/32/14 10/33/14 87/34/14
f 106/35/15 52/36/15 11/37/15 97/38/15
f 64/39/16 51/40/16 56/20/16 65/19/16
f 75/41/17 50/42/17 55/24/17 76/23/17
f 85/43/18 49/44/18 54/28/18 86/27/18
f 95/45/19 48/46/19 53/32/19 96/31/19
f 105/47/20 47/48/20 52/49/20 106/50/20
f 63/51/21 46/52/21 51/40/21 64/39/21
f 74/53/22 45/54/22 50/42/22 75/41/22
f 84/55/23 44/56/23 49/44/23 85/43/23
f 94/57/24 43/58/24 48/46/24 95/45/24
f 104/59/25 42/60/25 47/48/25 105/47/25
f 62/61/26 41/62/26 46/52/26 63/51/26
f 73/63/27 40/64/27 45/54/27 74/53/27
f 83/65/28 39/66/28 44/56/28 84/55/28
f 93/67/29 38/68/29 43/58/29 94/57/29
f 103/69/30 37/70/30 42/71/30 104/72/30
f 61/73/31 36/74/31 41/62/31 62/61/31
f 72/75/32 35/76/32 40/64/32 73/63/32
f 82/77/33 34/78/33 39/66/33 83/65/33
f 92/79/34 33/80/34 38/68/34 93/67/34
f 102/81/35 32/82/35 37/70/35 103/69/35
f 60/83/36 31/84/36 36/74/36 61/73/36
f 71/85/37 30/86/37 35/76/37 72/75/37
f 81/87/38 29/88/38 34/78/38 82/77/38
f 91/89/39 28/90/39 33/80/39 92/79/39
f 101/91/40 27/92/40 32/93/40 102/94/40
f 59/95/41 26/96/41 31/84/41 60/83/41
f 70/97/42 25/98/42 30/86/42 71/85/42
f 80/99/43 24/100/43 29/88/43 81/87/43
f 90/101/44 23/102/44 28/90/44 91/89/44
f 100/103/45 22/104/45 27/92/45 101/91/45
f 58/105/46 21/106/46 26/96/46 59/95/46
f 69/107/47 20/108/47 25/98/47 70/97/47
f 79/109/48 19/110/48 24/100/48 80/99/48
f 89/111/49 18/112/49 23/113/49 90/114/49
f 99/115/50 17/116/50 22/117/50 100/118/50
f 57/119/51 16/120/51 21/106/51 58/105/51
f 68/121/52 15/122/52 20/108/52 69/107/52
f 78/123/53 14/124/53 19/110/53 79/109/53
f 88/125/54 13/126/54 18/112/54 89/111/54
f 98/127/55 12/128/55 17/116/55 99/115/55
f 66/22/56 7/21/56 16/120/56 57/119/56
f 67/26/57 8/25/57 15/122/57 68/121/57
f 77/30/58 9/29/58 14/124/58 78/123/58
f 87/129/59 10/130/59 13/126/59 88/125/59
f 97/38/60 11/37/60 12/131/60 98/132/60
f 1/133/61 66/134/61 57/135/61 2/136/61
f 2/137/62 57/138/62 58/139/62 3/140/62
f 3/140/63 58/139/63 59/141/63 107/142/63
f 107/142/64 59/141/64 60/143/64 108/144/64
f 108/145/65 60/146/65 61/147/65 5/148/65
f 5/148/66 61/147/66 62/149/66 6/150/66
f 6/150/67 62/149/67 63/151/67 109/152/67
f 109/153/68 63/154/68 64/155/68 110/156/68
f 110/156/69 64/155/69 65/157/69 111/158/69
f 111/159/70 65/160/70 66/134/70 1/133/70
f 7/161/71 67/162/71 68/163/71 16/164/71
f 16/164/72 68/163/72 69/165/72 21/166/72
f 21/167/73 69/168/73 70/169/73 26/170/73
f 26/170/74 70/169/74 71/171/74 31/172/74
f 31/173/75 71/174/75 72/175/75 36/176/75
f 36/176/76 72/175/76 73/177/76 41/178/76
f 41/178/77 73/177/77 74/179/77 46/180/77
f 46/181/78 74/182/78 75/183/78 51/184/78
f 51/184/79 75/183/79 76/185/79 56/186/79
f 56/186/80 76/185/80 67/187/80 7/188/80
f 8/189/81 77/190/81 78/191/81 15/192/81
f 15/192/82 78/191/82 79/193/82 20/194/82
f 20/195/83 79/196/83 80/197/83 25/198/83
f 25/198/84 80/197/84 81/199/84 30/200/84
f 30/201/85 81/202/85 82/203/85 35/204/85
f 35/204/86 82/203/86 83/205/86 40/206/86
f 40/206/87 83/205/87 84/207/87 45/208/87
f 45/209/88 84/210/88 85/211/88 50/212/88
f 50/212/89 85/211/89 86/213/89 55/214/89
f 55/214/90 86/213/90 77/215/90 8/216/90
f 9/217/91 87/218/91 88/219/91 14/220/91
f 14/221/92 88/222/92 89/223/92 19/224/92
f 19/224/93 89/223/93 90/225/93 24/226/93
f 24/226/94 90/225/94 91/227/94 29/228/94
f 29/229/95 91/230/95 92/231/95 34/232/95
f 34/232/96 92/231/96 93/233/96 39/234/96
f 39/234/97 93/233/97 94/235/97 44/236/97
f 44/237/98 94/238/98 95/239/98 49/240/98
f 49/240/99 95/239/99 96/241/99 54/242/99
f 54/243/100 96/244/100 87/218/100 9/217/100
f 10/245/101 97/246/101 98/247/101 13/248/101
f 13/248/102 98/247/102 99/249/102 18/250/102
f 18/251/103 99/252/103 100/253/103 23/254/103
f 23/254/104 100/253/104 101/255/104 28/256/104
f 28/257/105 101/258/105 102/259/105 33/260/105
f 33/260/106 102/259/106 103/261/106 38/262/106
f 38/262/107 103/261/107 104/263/107 43/264/107
f 43/265/108 104/266/108 105/267/108 48/268/108
f 48/268/109 105/267/109 106/269/109 53/270/109
f 53/270/110 106/269/110 97/271/110 10/272/110
f 110/273/111 111/274/111 112/275/111
f 5/276/112 6/277/112 112/275/112
f 3/278/113 107/279/113 112/280/113
f 111/281/114 1/282/114 112/283/114
f 6/277/115 109/284/115 112/275/115
f 107/285/116 108/286/116 112/275/116
f 1/287/117 2/288/117 112/289/117
f 109/284/118 110/273/118 112/275/118
f 108/286/119 5/276/119 112/275/119
f 2/290/120 3/278/120 112/280/120
o tree.001
v -0.000000 -0.069816 -0.751277
v -0.000000 3.646267 -0.263924
v 0.441590 -0.069816 -0.607796
v 0.155130 3.646267 -0.213519
v 0.714507 -0.069816 -0.232157
v 0.251006 3.646267 -0.081557
v 0.714507 -0.069816 0.232157
v 0.251006 3.646267 0.081557
v 0.441590 -0.069816 0.607796
v 0.155130 3.646267 0.213519
v -0.000000 -0.069816 0.751277
v -0.000000 3.646267 0.263924
v -0.441590 -0.069816 0.607796
v -0.155130 3.646267 0.213519
v -0.714507 -0.069816 0.232157
v -0.251006 3.646267 0.081557
v -0.714507 -0.069816 -0.232157
v -0.251006 3.646267 -0.081557
v -0.441590 -0.069816 -0.607796
v -0.155130 3.646267 -0.213519
v -0.000000 0.839824 -0.518560
v 0.304802 0.839824 -0.419523
v 0.493179 0.839824 -0.160244
v 0.493179 0.839824 0.160244
v 0.304802 0.839824 0.419523
v -0.000000 0.839824 0.518560
v -0.304802 0.839824 0.419523
v -0.493179 0.839824 0.160244
v -0.493179 0.839824 -0.160244
v -0.304802 0.839824 -0.419523
vn 0.3079 0.0860 -0.9475
vn 0.8060 0.0860 -0.5856
vn 0.9963 0.0860 -0.0000
vn 0.8060 0.0860 0.5856
vn 0.3079 0.0860 0.9475
vn -0.3079 0.0860 0.9475
vn -0.8060 0.0860 0.5856
vn -0.9963 0.0860 -0.0000
vn -0.0000 1.0000 -0.0000
vn -0.8060 0.0860 -0.5856
vn -0.3079 0.0860 -0.9475
vn -0.0000 -1.0000 -0.0000
vn -0.3003 0.2364 -0.9241
vn -0.7861 0.2364 -0.5711
vn -0.9717 0.2364 -0.0000
vn -0.7861 0.2364 0.5711
vn -0.3003 0.2364 0.9241
vn 0.3003 0.2364 0.9241
vn 0.7861 0.2364 0.5711
vn 0.9717 0.2364 -0.0000
vn 0.7861 0.2364 -0.5711
vn 0.3003 0.2364 -0.9241
vt 0.699926 0.661047
vt 0.709951 0.518254
vt 0.718468 0.518588
vt 0.716662 0.661704
vt 0.621050 0.657926
vt 0.632159 0.516388
vt 0.639097 0.517983
vt 0.634682 0.661059
vt 0.647621 0.517983
vt 0.651431 0.661059
vt 0.654476 0.516388
vt 0.664899 0.657926
vt 0.557377 0.657926
vt 0.567800 0.516389
vt 0.574655 0.517983
vt 0.570845 0.661059
vt 0.583180 0.517983
vt 0.587594 0.661059
vt 0.590117 0.516389
vt 0.601226 0.657926
vt 0.676770 0.140993
vt 0.693423 -0.000000
vt 0.700293 0.001865
vt 0.690268 0.144658
vt 0.232808 0.520482
vt 0.224701 0.517848
vt 0.219690 0.510952
vt 0.219690 0.502427
vt 0.224701 0.495530
vt 0.232808 0.492896
vt 0.240916 0.495530
vt 0.245926 0.502427
vt 0.245926 0.510952
vt 0.240916 0.517848
vt 0.708811 0.002200
vt 0.707004 0.145315
vt 0.686428 0.657381
vt 0.703081 0.516388
vt 0.814517 0.206459
vt 0.814517 0.230722
vt 0.800697 0.250293
vt 0.778334 0.257697
vt 0.755972 0.250106
vt 0.742152 0.230419
vt 0.742152 0.206155
vt 0.755972 0.186584
vt 0.778334 0.179180
vt 0.800697 0.186772
vt 0.674666 0.704300
vt 0.694222 0.709610
vt 0.684564 0.193222
vt 0.708811 0.194174
vt 0.665008 0.187912
vt 0.591389 0.709809
vt 0.611138 0.705270
vt 0.567124 0.709809
vt 0.547610 0.705270
vt 0.655153 0.709809
vt 0.674666 0.705270
vt 0.630887 0.709809
vt 0.718468 0.710562
s 0
usemtl Material.001
f 133/291/121 114/292/121 116/293/121 134/294/121
f 134/295/122 116/296/122 118/297/122 135/298/122
f 135/298/123 118/297/123 120/299/123 136/300/123
f 136/300/124 120/299/124 122/301/124 137/302/124
f 137/303/125 122/304/125 124/305/125 138/306/125
f 138/306/126 124/305/126 126/307/126 139/308/126
f 139/308/127 126/307/127 128/309/127 140/310/127
f 140/311/128 128/312/128 130/313/128 141/314/128
f 116/315/129 114/316/129 132/317/129 130/318/129 128/319/129 126/320/129 124/321/129 122/322/129 120/323/129 118/324/129
f 141/314/130 130/313/130 132/325/130 142/326/130
f 142/327/131 132/328/131 114/292/131 133/291/131
f 113/329/132 115/330/132 117/331/132 119/332/132 121/333/132 123/334/132 125/335/132 127/336/132 129/337/132 131/338/132
f 131/339/133 142/327/133 133/291/133 113/340/133
f 129/341/134 141/314/134 142/326/134 131/342/134
f 127/343/135 140/311/135 141/314/135 129/341/135
f 125/344/136 139/308/136 140/310/136 127/345/136
f 123/346/137 138/306/137 139/308/137 125/344/137
f 121/347/138 137/303/138 138/306/138 123/346/138
f 119/348/139 136/300/139 137/302/139 121/349/139
f 117/350/140 135/298/140 136/300/140 119/348/140
f 115/345/141 134/295/141 135/298/141 117/350/141
f 113/340/142 133/291/142 134/294/142 115/351/142
