# Blender 3.6.4
# www.blender.org
mtllib rock_03.mtl
o Icosphere
v 0.235164 -0.594352 -0.576611
v -0.892648 -0.635622 0.505891
v -0.272592 -0.695174 -0.611958
v 0.299030 -0.046119 1.701178
v -0.905303 -0.206711 1.026188
v -0.870243 0.023257 0.942645
v -1.182379 -0.534901 -1.049663
v 0.705110 0.364236 -0.308936
v 0.020002 0.560388 -0.057329
v -0.738914 0.240223 0.767981
v -0.351672 0.560159 -0.363388
v -1.123727 0.202952 -0.253196
v 0.298856 0.501971 -0.612410
v 0.187135 0.290075 -1.395898
v 0.428166 0.269222 -1.231562
v -0.171356 0.573233 -0.690711
v -0.405027 0.502929 -0.831684
v -1.080732 0.235570 -0.618897
v -0.247046 0.429978 0.463066
v -1.070595 0.162938 0.362416
v 0.152750 0.369203 0.663507
v -0.315886 0.086740 1.113178
v 0.657826 0.343473 0.447015
v 0.923472 0.266625 -0.133045
v 0.933874 0.171059 0.371668
v 0.653396 0.001586 -1.154200
v 0.583856 -0.298499 -1.143381
v 0.391785 -0.009278 -1.556995
v -0.141042 0.245694 -1.370400
v -0.474122 -0.020578 -1.375464
v -1.272749 -0.400572 -1.075493
v -1.180815 -0.058297 -0.962790
v -1.432333 -0.021621 -0.190543
v -1.501133 -0.216141 -0.253236
v -1.366370 -0.435367 0.148152
v -1.384926 -0.222579 0.365520
v -1.251447 -0.072972 0.556386
v -0.497547 -0.215771 1.442986
v -0.474777 -0.423538 1.460052
v 0.151223 -0.083073 1.774250
v 0.003130 -0.315147 1.778948
v 0.509437 -0.064747 1.549004
v 1.068196 0.028561 0.259637
v 0.858869 -0.187767 0.728893
v 1.037604 -0.174308 0.255923
v 0.176105 -0.058004 -1.640862
v 0.274382 -0.246476 -1.530916
v 0.350533 -0.446231 -1.163715
v -0.518270 -0.525310 -1.123017
v -1.307304 -0.204822 -0.935869
v -1.348261 -0.465613 -0.491619
v -0.942894 -0.637883 -0.869864
v -1.116206 -0.455188 0.669705
v -0.754545 -0.410582 1.041327
v -0.476524 -0.599325 0.950402
v 0.388350 -0.242675 1.801097
v 0.477598 -0.348726 1.733450
v 0.209407 -0.472777 1.780321
v 0.587897 -0.462090 1.373437
v 0.393896 -0.622508 1.415328
v 0.111277 -0.671130 1.359262
v 1.025270 0.106977 -0.194441
v 1.075349 -0.086746 -0.071979
v 0.841990 -0.466190 -0.087748
v 0.708255 -0.384048 -0.542663
v -0.996367 -0.618392 -0.202367
v -0.137310 -0.632662 0.296187
v -0.236020 -0.654342 0.810295
v 0.726824 -0.531994 -0.135276
v 0.791982 -0.521990 0.345215
v 0.437232 -0.647767 0.592592
vn 0.2903 0.9559 0.0452
vn 0.4439 -0.4268 -0.7879
vn 0.4856 0.8469 -0.2169
vn 0.2753 0.9174 -0.2874
vn 0.1541 0.9877 -0.0265
vn -0.0230 0.9994 0.0272
vn -0.2360 0.9675 -0.0913
vn -0.3856 0.9201 -0.0685
vn -0.4159 0.9088 0.0322
vn 0.1894 0.9407 -0.2814
vn -0.0413 0.9198 -0.3903
vn -0.1541 0.8601 -0.4862
vn -0.4259 0.7175 -0.5513
vn -0.4502 0.7393 -0.5007
vn -0.1418 0.9749 0.1715
vn -0.3895 0.9009 0.1912
vn -0.3162 0.9455 0.0784
vn -0.3170 0.9443 0.0887
vn -0.5880 0.8089 0.0030
vn -0.5717 0.8141 0.1023
vn -0.5887 0.7325 0.3419
vn 0.0203 0.9673 0.2528
vn -0.0554 0.8854 0.4616
vn -0.0946 0.8844 0.4569
vn -0.1930 0.9089 0.3698
vn -0.2821 0.6994 0.6567
vn -0.4064 0.7738 0.4859
vn 0.1469 0.9625 0.2282
vn 0.2900 0.9560 0.0444
vn 0.3745 0.9259 0.0489
vn 0.5522 0.8212 0.1441
vn -0.0451 0.9252 0.3767
vn 0.1930 0.9200 0.3410
vn 0.7635 0.6372 0.1049
vn 0.8453 0.5342 0.0123
vn 0.7336 0.5944 -0.3294
vn 0.9319 0.0118 -0.3624
vn 0.7633 0.5397 -0.3550
vn 0.9021 -0.2224 -0.3699
vn 0.7796 -0.5769 -0.2436
vn 0.7321 0.4750 -0.4883
vn 0.4678 0.6450 -0.6043
vn 0.8226 -0.2097 -0.5286
vn -0.1402 0.5728 -0.8076
vn -0.3223 0.4193 -0.8487
vn -0.3745 0.0565 -0.9255
vn -0.2668 -0.3520 -0.8971
vn -0.4391 0.5626 -0.7005
vn -0.4801 0.3880 -0.7867
vn -0.6012 0.3910 -0.6969
vn -0.0378 -0.8880 -0.4583
vn -0.7502 0.5944 -0.2896
vn -0.7617 0.5879 -0.2723
vn -0.8864 0.3926 -0.2452
vn -0.8524 -0.5229 0.0006
vn -0.9442 0.2759 0.1802
vn -0.6827 0.6988 0.2134
vn -0.9490 -0.2620 0.1755
vn -0.8558 0.4589 0.2388
vn -0.4194 -0.9073 0.0310
vn -0.5929 0.6913 0.4129
vn -0.2642 0.7788 0.5689
vn -0.6680 0.3419 0.6609
vn -0.7149 -0.0209 0.6989
vn -0.7262 -0.5021 0.4696
vn -0.4712 -0.8333 0.2890
vn -0.5562 0.0073 0.8310
vn -0.4819 0.3240 0.8141
vn -0.3244 -0.8939 0.3094
vn 0.5165 0.5628 0.6453
vn 0.3417 0.8654 0.3666
vn 0.5631 0.7474 0.3527
vn 0.7704 0.2843 0.5707
vn 0.9014 0.1602 0.4022
vn 0.8033 0.4575 0.3812
vn 0.9326 -0.1436 0.3310
vn 0.9256 -0.2048 0.3185
vn 0.8905 -0.4084 0.2005
vn 0.9268 -0.1461 0.3461
vn 0.1866 0.5614 -0.8062
vn 0.4034 -0.2949 -0.8662
vn 0.6867 -0.4062 -0.6029
vn -0.1586 -0.5579 -0.8146
vn 0.4959 -0.7155 -0.4921
vn -0.0596 -0.7663 -0.6397
vn 0.0566 -0.8721 -0.4861
vn 0.5351 -0.8138 -0.2267
vn -0.9618 0.0247 -0.2727
vn -0.9026 -0.3991 -0.1612
vn -0.8028 -0.5723 -0.1676
vn -0.3921 -0.9199 -0.0046
vn -0.3957 -0.9184 -0.0036
vn -0.7112 0.3333 0.6189
vn -0.7803 -0.0928 0.6184
vn -0.8153 -0.1206 0.5664
vn -0.8114 -0.4508 0.3720
vn -0.6268 -0.4145 0.6598
vn -0.5133 -0.8309 0.2146
vn -0.3853 -0.7940 0.4702
vn -0.4136 -0.9097 0.0384
vn 0.2656 0.5301 0.8053
vn 0.0059 0.0165 0.9998
vn -0.1135 -0.0015 0.9935
vn 0.3038 -0.3174 0.8983
vn -0.3946 -0.5097 0.7646
vn 0.4317 -0.7367 0.5204
vn 0.6335 -0.6610 0.4022
vn -0.2767 -0.8429 0.4615
vn 0.0749 -0.9087 0.4106
vn 0.9745 0.2174 -0.0546
vn 0.9860 -0.1500 0.0734
vn 0.8518 -0.5222 -0.0414
vn 0.8147 -0.5001 0.2936
vn 0.8191 -0.5733 0.0207
vn 0.8112 -0.4854 -0.3261
vn 0.4032 -0.8541 -0.3285
vn 0.4106 -0.9000 -0.1464
vn 0.2042 -0.9579 -0.2015
vn 0.1193 -0.9928 0.0073
vn 0.0691 -0.9363 -0.3444
vn 0.1920 -0.9806 0.0389
vn 0.0489 -0.9405 -0.3361
vn -0.0934 -0.9954 0.0216
vn -0.0616 -0.9951 0.0777
vn 0.0071 -0.9991 -0.0408
vn -0.0185 -0.9996 -0.0216
vn -0.1144 -0.9757 0.1868
vn -0.3690 -0.8325 0.4134
vn 0.5642 -0.7675 -0.3044
vn 0.5114 -0.8578 -0.0515
vn 0.3194 -0.9473 -0.0236
vn -0.1767 -0.9809 0.0818
vn -0.0041 -0.9991 -0.0429
vn -0.0001 -0.9995 -0.0305
vn 0.1619 -0.9860 0.0388
vn 0.3632 -0.9305 0.0477
vn 0.0458 -0.9892 -0.1391
vn 0.6495 -0.7406 0.1721
vt 0.435520 0.368538
vt 0.493628 0.390740
vt 0.459475 0.459440
vt 0.401470 0.337399
vt 0.506145 0.312651
vt 0.541548 0.315902
vt 0.602040 0.393092
vt 0.627059 0.372779
vt 0.653862 0.433846
vt 0.666135 0.389779
vt 0.640729 0.349997
vt 0.703820 0.331353
vt 0.696860 0.367598
vt 0.556263 0.317236
vt 0.594865 0.309024
vt 0.682159 0.297748
vt 0.785759 0.410477
vt 0.845815 0.404139
vt 0.810626 0.427907
vt 0.784005 0.335537
vt 0.865185 0.324391
vt 0.895816 0.337292
vt 0.741840 0.332204
vt 0.801332 0.288340
vt 0.892028 0.273498
vt 0.073664 0.431179
vt 0.072643 0.386561
vt 0.125262 0.385199
vt 0.051041 0.337512
vt 0.112630 0.337446
vt 0.172906 0.286179
vt 0.048942 0.297811
vt 0.108572 0.272396
vt 0.225552 0.379789
vt 0.272545 0.361841
vt 0.259216 0.444462
vt 0.314977 0.392730
vt 0.337440 0.340605
vt 0.296905 0.328956
vt 0.200923 0.282796
vt 0.330669 0.283115
vt 0.390122 0.292931
vt 0.372790 0.240799
vt 0.479864 0.261050
vt 0.500606 0.204000
vt 0.454735 0.152036
vt 0.521675 0.265832
vt 0.555277 0.260704
vt 0.613230 0.279538
vt 0.681508 0.250656
vt 0.682406 0.220666
vt 0.701934 0.277750
vt 0.693705 0.185129
vt 0.615444 0.195394
vt 0.798944 0.258626
vt 0.778918 0.219637
vt 0.839891 0.214413
vt 0.862384 0.252816
vt 0.806097 0.146316
vt 0.008324 0.310341
vt 0.052301 0.259943
vt 0.107059 0.226568
vt 0.069524 0.213211
vt 0.095029 0.155003
vt 0.157825 0.239866
vt 0.168463 0.165495
vt 0.210326 0.247558
vt 0.232173 0.276374
vt 0.223434 0.222256
vt 0.244273 0.200343
vt 0.290891 0.221987
vt 0.316488 0.131338
vt 0.333573 0.224946
vt 0.542964 0.230107
vt 0.535501 0.182230
vt 0.939632 0.250221
vt 0.924074 0.288969
vt 0.901952 0.195574
vt 0.959813 0.206638
vt 0.891679 0.134610
vt 0.984051 0.154277
vt 0.184864 0.213898
vt 0.212221 0.179960
vt 0.373885 0.142030
vt 0.482955 0.108254
vt 0.544829 0.104888
vt 0.612315 0.122455
vt 0.502010 0.083459
vt 0.553517 0.027650
vt 0.589313 0.075965
vt 0.677730 0.109256
vt 0.744821 0.041249
vt 0.783167 0.147697
vt 0.910582 0.046879
vt 0.970154 0.113989
vt 0.383492 0.105953
vt 0.435496 0.147151
vt 0.315399 0.088572
vt 0.120790 0.121632
vt 0.166802 0.031893
vt 0.195776 0.092899
vt 0.251297 0.122223
vt 0.206057 0.045303
s 0
f 8/1/1 13/2/1 9/3/1
f 24/4/2 13/2/2 8/1/2
f 24/4/3 15/5/3 13/2/3
f 13/2/4 15/5/4 14/6/4
f 13/7/5 16/8/5 9/9/5
f 16/8/6 11/10/6 9/9/6
f 16/8/7 17/11/7 11/10/7
f 17/11/8 18/12/8 11/10/8
f 11/10/9 18/12/9 12/13/9
f 14/14/10 16/8/10 13/7/10
f 14/14/11 17/11/11 16/8/11
f 14/14/12 29/15/12 17/11/12
f 29/15/13 32/16/13 17/11/13
f 17/11/14 32/16/14 18/12/14
f 11/17/15 19/18/15 9/19/15
f 11/17/16 12/20/16 19/18/16
f 20/21/17 10/22/17 19/18/17
f 12/20/18 20/21/18 19/18/18
f 18/23/19 33/24/19 12/20/19
f 33/24/20 20/21/20 12/20/20
f 20/21/21 37/25/21 10/22/21
f 9/26/22 19/27/22 21/28/22
f 10/29/23 22/30/23 19/27/23
f 19/27/24 22/30/24 21/28/24
f 22/30/25 40/31/25 21/28/25
f 6/32/26 22/30/26 10/29/26
f 38/33/27 40/31/27 22/30/27
f 21/34/28 23/35/28 9/36/28
f 9/36/29 23/35/29 8/37/29
f 23/35/30 24/38/30 8/37/30
f 23/35/31 25/39/31 24/38/31
f 40/31/32 4/40/32 21/34/32
f 21/34/33 4/40/33 23/35/33
f 25/39/34 43/41/34 24/38/34
f 43/41/35 62/42/35 24/38/35
f 62/42/36 15/5/36 24/4/36
f 63/43/37 26/44/37 62/42/37
f 26/44/38 15/5/38 62/42/38
f 27/45/39 26/44/39 63/43/39
f 65/46/40 27/45/40 63/43/40
f 26/44/41 28/47/41 15/5/41
f 28/47/42 14/14/42 15/5/42
f 26/44/43 27/45/43 28/47/43
f 46/48/44 29/15/44 14/14/44
f 46/48/45 30/49/45 29/15/45
f 31/50/46 30/49/46 46/48/46
f 46/48/47 7/51/47 31/50/47
f 30/49/48 32/16/48 29/15/48
f 31/50/49 32/16/49 30/49/49
f 31/50/50 50/52/50 32/16/50
f 52/53/51 7/51/51 49/54/51
f 32/16/52 50/52/52 18/23/52
f 50/52/53 33/24/53 18/23/53
f 34/55/54 33/24/54 50/52/54
f 51/56/55 35/57/55 34/55/55
f 34/55/56 36/58/56 33/24/56
f 33/24/57 37/25/57 20/21/57
f 35/57/58 36/58/58 34/55/58
f 36/58/59 37/25/59 33/24/59
f 66/59/60 35/57/60 51/56/60
f 37/60/61 6/32/61 10/29/61
f 38/33/62 22/30/62 6/32/62
f 5/61/63 38/33/63 6/32/63
f 39/62/64 38/33/64 5/61/64
f 54/63/65 39/62/65 5/61/65
f 55/64/66 39/62/66 54/63/66
f 39/62/67 41/65/67 38/33/67
f 41/65/68 40/31/68 38/33/68
f 55/64/69 61/66/69 39/62/69
f 56/67/70 42/68/70 4/40/70
f 42/68/71 23/35/71 4/40/71
f 42/68/72 25/39/72 23/35/72
f 56/67/73 57/69/73 42/68/73
f 57/69/74 43/41/74 42/68/74
f 43/41/75 25/39/75 42/68/75
f 59/70/76 44/71/76 57/69/76
f 57/69/77 44/71/77 43/41/77
f 70/72/78 44/71/78 59/70/78
f 44/71/79 45/73/79 43/41/79
f 28/47/80 46/48/80 14/14/80
f 28/47/81 47/74/81 46/48/81
f 27/45/82 47/74/82 28/47/82
f 47/74/83 7/51/83 46/48/83
f 27/45/84 48/75/84 47/74/84
f 47/74/85 49/54/85 7/51/85
f 48/75/86 49/54/86 47/74/86
f 65/46/87 48/75/87 27/45/87
f 31/50/88 34/55/88 50/52/88
f 31/50/89 51/56/89 34/55/89
f 7/51/90 51/56/90 31/50/90
f 52/53/91 66/59/91 7/51/91
f 7/51/92 66/59/92 51/56/92
f 37/25/93 5/76/93 6/77/93
f 36/58/94 53/78/94 37/25/94
f 53/78/95 5/76/95 37/25/95
f 36/58/96 35/57/96 53/78/96
f 53/78/97 54/79/97 5/76/97
f 35/57/98 2/80/98 53/78/98
f 54/79/99 53/78/99 55/81/99
f 66/59/100 2/80/100 35/57/100
f 40/31/101 56/67/101 4/40/101
f 41/65/102 58/82/102 40/31/102
f 40/31/103 58/82/103 56/67/103
f 58/82/104 57/69/104 56/67/104
f 39/62/105 58/82/105 41/65/105
f 58/82/106 60/83/106 57/69/106
f 60/83/107 59/70/107 57/69/107
f 39/62/108 61/66/108 58/82/108
f 58/82/109 61/66/109 60/83/109
f 43/41/110 63/43/110 62/42/110
f 45/73/111 63/43/111 43/41/111
f 45/73/112 64/84/112 63/43/112
f 70/72/113 45/73/113 44/71/113
f 45/73/114 70/72/114 64/84/114
f 64/84/115 65/46/115 63/43/115
f 69/85/116 1/86/116 65/46/116
f 65/46/117 1/86/117 48/75/117
f 1/86/118 3/87/118 48/75/118
f 69/88/119 67/89/119 1/86/119
f 3/87/120 49/54/120 48/75/120
f 67/89/121 3/90/121 1/86/121
f 3/91/122 52/53/122 49/54/122
f 3/91/123 66/59/123 52/53/123
f 67/92/124 66/93/124 3/91/124
f 67/94/125 68/95/125 66/59/125
f 66/59/126 68/95/126 2/80/126
f 68/95/127 55/81/127 2/80/127
f 2/80/128 55/81/128 53/78/128
f 64/84/129 69/96/129 65/97/129
f 64/84/130 70/72/130 69/96/130
f 70/72/131 71/98/131 69/96/131
f 68/99/132 61/66/132 55/64/132
f 67/100/133 71/101/133 68/99/133
f 68/99/134 71/101/134 61/66/134
f 71/101/135 60/83/135 61/66/135
f 71/101/136 70/102/136 60/83/136
f 67/100/137 69/103/137 71/101/137
f 70/102/138 59/70/138 60/83/138
