# Blender 3.6.4
# www.blender.org
mtllib rock_02.mtl
o Icosphere
v 0.740115 -0.119074 -0.392467
v -0.189297 -0.133760 0.418129
v -0.332350 -0.119440 -0.519843
v 1.112799 0.344615 0.093001
v 1.124527 0.273943 -0.371288
v 0.795513 0.338154 0.853779
v 0.714513 0.534234 0.935674
v -1.141105 0.315689 0.466368
v -0.211848 0.243822 1.341297
v -0.501157 0.441973 1.264495
v -0.554444 1.007883 0.937869
v -0.744726 0.822346 0.859964
v -0.597831 1.528705 0.651178
v -0.868181 0.924104 0.519925
v -0.673144 0.171907 -0.635016
v -0.454954 0.012129 -0.686030
v -1.091242 0.284404 -0.006932
v -0.824792 0.889227 -0.466588
v 0.737244 0.024309 -0.648946
v -0.205413 2.242888 0.134115
v 0.098511 1.825043 0.435569
v 0.065726 2.087035 -0.093023
v -0.225178 2.217788 -0.198547
v -0.434772 2.165942 -0.112009
v -0.503423 2.073090 0.040059
v -0.563993 1.362550 -0.432273
v -0.355612 2.014919 -0.329377
v -0.100324 1.826577 -0.449531
v 0.129078 1.109042 -0.639880
v 0.148005 0.655390 -0.854101
v 0.124641 1.853083 -0.312113
v 0.323475 1.347716 -0.480910
v 0.834263 1.112202 -0.161004
v 0.743213 1.102756 -0.376509
v 0.424099 0.906036 -0.697998
v -0.306613 1.829247 -0.428278
v -0.334626 1.089415 -0.667516
v -0.668661 0.923082 -0.624026
v -0.484169 0.864352 -0.741896
v -0.525696 1.955577 -0.167317
v -0.582068 1.753819 0.187806
v -0.679508 1.391332 -0.131784
v -0.858530 0.996595 -0.280392
v -0.804000 1.156996 0.269275
v -0.330397 2.276127 -0.000153
v -0.366603 2.182111 0.153411
v -0.381831 1.948762 0.345361
v -0.164623 1.986134 0.379009
v -0.062291 1.820995 0.524683
v -0.610718 1.632585 0.493369
v -0.413994 1.810402 0.571293
v -0.131675 2.254085 -0.053603
v 0.003101 2.150965 0.129181
v 0.304014 1.828174 0.117744
v 0.886735 1.032993 0.169980
v 0.556712 1.369569 0.422364
v 0.821822 1.033188 0.361182
v 1.034298 0.504310 -0.450830
v 0.787080 0.688544 -0.659399
v 0.894690 0.268533 -0.656130
v 0.641398 0.536032 -0.798300
v 0.670407 0.313659 -0.812872
v -0.384024 0.677401 -0.848407
v -0.438312 0.319086 -0.865711
v -0.688939 0.625198 -0.715652
v -1.081004 0.622539 0.056807
v -0.962630 0.917131 0.093652
v -1.081230 0.524269 0.544418
v -0.266033 1.509690 0.799340
v -0.246843 1.012700 1.010231
v -0.149971 0.430404 1.307580
v 0.348010 0.991469 0.937872
v 0.940027 0.712992 0.348509
v 0.920752 0.459727 0.441443
v 0.873451 0.206631 0.446980
v -0.043442 0.409838 -0.939731
v 0.395091 0.274398 -0.893461
v -0.022332 0.204376 -0.925082
v -0.061926 0.001127 -0.835862
v 0.406370 0.084951 -0.840718
v -0.274209 0.061696 -0.827012
v 0.296352 -0.030489 -0.762301
v -0.827695 0.500334 -0.554846
v -1.034171 0.541464 -0.138574
v -0.638002 0.007366 -0.457997
v -0.987093 0.077039 -0.029794
v -1.116762 0.136328 0.233680
v -0.827110 0.458531 1.011331
v -1.061865 0.143090 0.683907
v -1.111544 0.099596 0.485707
v -0.819860 0.156621 1.008700
v -0.553671 0.220098 1.243017
v 0.599873 0.743316 0.932359
v 0.611638 0.318992 1.120805
v 0.282527 0.268771 1.278934
v 0.733263 0.079184 0.847785
v 0.598646 0.073606 1.094631
v 1.153491 0.422802 -0.164311
v 1.165414 0.183613 -0.180916
v 1.104800 0.129260 0.036406
v 1.062450 0.110378 -0.438658
v 1.026431 -0.024547 -0.215014
v 0.968704 -0.001969 -0.418079
v 0.749766 0.000129 0.362905
v 0.122521 -0.152460 -0.422857
v -0.115484 -0.119906 -0.676596
v -0.188770 -0.124733 0.012877
v -0.504085 -0.104499 -0.192552
v -0.937183 -0.067050 0.184497
v -0.756789 -0.162102 0.486002
v -0.935975 -0.101546 0.503386
v -0.897718 -0.037115 0.763598
v -0.639567 -0.088689 0.951026
v -0.110302 -0.135183 0.989462
v -0.304254 0.024745 1.246165
v -0.134790 -0.064771 1.169490
v 0.406608 -0.199448 0.237603
v 0.253035 -0.212469 0.003986
v 0.580788 -0.111041 0.321250
v 0.114677 0.057830 1.290059
v 0.346120 -0.078649 1.085958
v 0.572326 -0.060884 0.867636
v 0.244354 -0.178019 0.461230
vn 0.0029 0.5406 -0.8412
vn 0.5000 0.6557 -0.5658
vn 0.3727 0.5824 -0.7224
vn 0.3138 0.3359 -0.8881
vn 0.6943 0.5773 -0.4298
vn 0.4318 0.4340 -0.7907
vn 0.7760 0.6199 -0.1160
vn 0.7146 0.6174 -0.3290
vn 0.4489 0.4370 -0.7795
vn 0.4822 0.5283 -0.6988
vn 0.1464 0.4630 -0.8742
vn 0.1180 0.4280 -0.8960
vn 0.3702 0.4763 -0.7975
vn -0.0857 0.4507 -0.8886
vn -0.5171 0.2921 -0.8045
vn -0.0935 0.3095 -0.9463
vn -0.5011 0.2834 -0.8176
vn 0.0459 0.2698 -0.9618
vn -0.3289 0.4424 -0.8343
vn -0.3502 0.4954 -0.7950
vn 0.0357 0.4279 -0.9031
vn 0.0068 0.4013 -0.9159
vn -0.1780 0.4134 -0.8930
vn -0.6937 0.4481 -0.5639
vn -0.8939 0.4243 -0.1445
vn -0.7093 0.3252 -0.6254
vn -0.9733 0.2283 -0.0248
vn -0.9026 0.2228 -0.3683
vn -0.9649 0.2628 -0.0039
vn -0.6875 0.4217 -0.5912
vn -0.7862 0.4629 -0.4094
vn -0.7950 0.4934 -0.3529
vn -0.9372 0.3356 -0.0949
vn -0.8785 0.4542 -0.1480
vn -0.8481 0.5278 0.0451
vn -0.4193 0.6669 -0.6160
vn -0.9336 0.3544 0.0531
vn -0.3831 0.8113 -0.4417
vn -0.7540 0.6542 0.0591
vn -0.7168 0.6571 0.2333
vn -0.2653 0.8489 0.4571
vn -0.7764 0.4120 0.4770
vn -0.7544 0.4457 0.4819
vn -0.2235 0.6279 0.7455
vn -0.1645 0.6670 0.7267
vn 0.2753 0.6861 0.6735
vn 0.3170 0.7303 0.6052
vn -0.6998 0.6840 0.2058
vn -0.7693 0.5878 0.2504
vn -0.2208 0.8454 0.4863
vn 0.0753 0.6855 0.7242
vn -0.9360 0.3431 0.0791
vn 0.0836 0.6279 0.7738
vn 0.1396 0.9837 0.1135
vn 0.3223 0.6968 0.6408
vn 0.0358 0.9637 -0.2644
vn 0.4994 0.7080 -0.4994
vn 0.3986 0.8928 0.2098
vn 0.6408 0.7667 -0.0400
vn 0.7316 0.6817 0.0101
vn 0.6851 0.6255 0.3733
vn 0.8061 0.5916 0.0138
vn 0.6310 0.6213 0.4645
vn 0.7764 0.5845 0.2358
vn 0.7803 0.5669 0.2643
vn 0.3914 0.5581 0.7317
vn 0.5590 0.5443 0.6255
vn 0.9065 0.4200 -0.0432
vn 0.8783 0.4079 -0.2493
vn 0.8185 0.4435 -0.3652
vn 0.9168 0.2522 -0.3097
vn 0.7475 0.4268 -0.5090
vn 0.7781 -0.0370 -0.6271
vn 0.7745 0.0870 -0.6266
vn 0.7081 0.1761 -0.6838
vn 0.3460 0.4293 -0.8343
vn 0.5862 0.1440 -0.7973
vn 0.6090 0.1307 -0.7823
vn 0.5474 -0.5691 -0.6136
vn 0.5706 -0.3891 -0.7232
vn 0.1903 0.3594 -0.9136
vn -0.2271 -0.3540 -0.9072
vn 0.0034 0.3269 -0.9451
vn -0.1642 -0.0869 -0.9826
vn -0.2009 0.0776 -0.9765
vn -0.1006 -0.2103 -0.9724
vn -0.4122 0.1061 -0.9049
vn -0.4228 0.2669 -0.8660
vn -0.4478 0.2906 -0.8456
vn -0.4824 -0.4229 -0.7671
vn -0.4873 -0.4213 -0.7649
vn -0.6407 -0.1561 -0.7518
vn -0.9141 0.2470 -0.3216
vn -0.9131 0.2592 -0.3149
vn -0.9068 0.3857 -0.1704
vn -0.9615 0.0787 -0.2631
vn -0.9285 0.3640 0.0729
vn -0.9945 0.0010 -0.1048
vn -0.9929 0.0504 -0.1079
vn -0.9649 0.2577 0.0515
vn -0.8743 0.4558 0.1672
vn -0.8559 0.4694 0.2169
vn -0.8946 0.3361 0.2943
vn -0.2087 0.4741 0.8554
vn -0.1121 0.2126 0.9707
vn -0.6925 0.5753 0.4353
vn -0.6197 0.3382 0.7082
vn -0.3475 0.4298 0.8334
vn -0.3410 0.4557 0.8222
vn -0.2179 0.3741 0.9014
vn -0.0950 0.4401 0.8929
vn 0.2684 0.5326 0.8027
vn 0.1249 0.3916 0.9116
vn 0.5540 0.5483 0.6265
vn 0.7528 0.4208 0.5061
vn 0.7156 0.4700 0.5166
vn 0.8927 0.2001 0.4038
vn 0.8566 0.2996 0.4202
vn 0.9530 0.0378 0.3006
vn 0.9389 -0.2316 0.2547
vn 0.9554 -0.1733 0.2391
vn 0.8975 0.3193 0.3044
vn 0.8302 -0.5450 0.1171
vn 0.8850 0.0996 0.4549
vn 0.1602 0.2114 -0.9642
vn 0.2667 0.0976 -0.9588
vn 0.1631 0.1980 -0.9665
vn 0.0857 -0.0621 -0.9944
vn 0.4916 -0.3405 -0.8015
vn 0.4124 -0.3751 -0.8302
vn 0.3040 -0.2387 -0.9223
vn 0.1162 -0.2600 -0.9586
vn 0.0642 -0.4116 -0.9091
vn 0.1038 -0.6247 -0.7740
vn 0.2583 -0.6991 -0.6667
vn -0.2359 -0.7338 -0.6370
vn -0.2723 -0.7437 -0.6106
vn -0.7139 0.2498 -0.6542
vn -0.8004 0.1383 -0.5832
vn -0.8862 0.1088 -0.4503
vn -0.6878 -0.1503 -0.7102
vn -0.8966 -0.0273 -0.4420
vn -0.8238 -0.2654 -0.5009
vn -0.5876 -0.6475 -0.4852
vn -0.8068 -0.3530 -0.4738
vn -0.6590 -0.6117 -0.4377
vn -0.8568 -0.3936 -0.3331
vn -0.8647 0.2991 0.4035
vn -0.7633 0.4359 0.4768
vn -0.8368 0.3608 0.4118
vn -0.6589 0.4113 0.6299
vn -0.5566 0.3754 0.7412
vn -0.9047 0.1052 0.4130
vn -0.8622 0.1349 0.4883
vn -0.9908 -0.1355 0.0008
vn -0.9586 -0.1075 0.2639
vn -0.8012 -0.0245 0.5980
vn -0.6576 -0.0224 0.7531
vn -0.6098 0.0679 0.7896
vn -0.2744 -0.0281 0.9612
vn 0.2330 0.4727 0.8499
vn 0.3947 0.3820 0.8356
vn 0.5976 0.3392 0.7265
vn 0.1245 0.4142 0.9016
vn 0.3551 0.3725 0.8574
vn 0.8162 0.0994 0.5692
vn 0.8227 -0.1032 0.5591
vn 0.8590 -0.2172 0.4636
vn 0.1170 0.1389 0.9834
vn 0.4446 -0.1182 0.8879
vn 0.1274 -0.0492 0.9906
vn 0.3697 -0.2470 0.8957
vn 0.3220 -0.5768 0.7508
vn 0.4599 -0.7863 0.4125
vn 0.6418 -0.6901 0.3344
vn 0.9318 0.2824 0.2281
vn 0.9326 0.2768 0.2316
vn 0.9814 0.0615 -0.1816
vn 0.9852 0.0375 0.1672
vn 0.8495 -0.1477 0.5065
vn 0.8391 -0.1672 0.5177
vn 0.9646 -0.1000 0.2440
vn 0.9251 -0.2252 -0.3056
vn 0.8217 -0.5631 0.0883
vn 0.8312 -0.5250 -0.1829
vn 0.7130 -0.6452 -0.2744
vn 0.6535 -0.5863 0.4787
vn 0.5574 -0.7742 0.2999
vn 0.4254 -0.8782 -0.2186
vn 0.3643 -0.8111 -0.4575
vn 0.2281 -0.8488 -0.4770
vn 0.0621 -0.9809 -0.1841
vn 0.1233 -0.9213 -0.3687
vn 0.0610 -0.9857 -0.1572
vn 0.0509 -0.8033 -0.5934
vn -0.1957 -0.9776 -0.0776
vn -0.0563 -0.9956 -0.0749
vn -0.0746 -0.9972 0.0102
vn -0.3160 -0.8434 -0.4346
vn -0.4186 -0.8366 -0.3535
vn -0.4070 -0.8969 -0.1726
vn -0.0698 -0.9975 0.0089
vn -0.5824 -0.7309 -0.3558
vn -0.2915 -0.9252 -0.2429
vn -0.2277 -0.9594 -0.1662
vn -0.0071 -0.9962 -0.0872
vn -0.7561 -0.6109 -0.2347
vn -0.3273 -0.9396 -0.1004
vn -0.7567 -0.6490 -0.0789
vn -0.7486 -0.6595 -0.0685
vn -0.7284 -0.6080 0.3160
vn -0.7683 -0.5858 0.2580
vn -0.7222 -0.4123 0.5553
vn -0.2930 -0.9303 0.2207
vn -0.3761 -0.8850 0.2744
vn -0.5584 -0.5553 0.6163
vn 0.0472 -0.9986 -0.0222
vn -0.0990 -0.9788 0.1795
vn -0.4892 -0.5235 0.6976
vn 0.0488 -0.9988 -0.0092
vn -0.4394 -0.5496 0.7105
vn -0.1071 -0.9308 0.3495
vn -0.1925 -0.8227 0.5349
vn -0.2447 -0.2975 0.9228
vn 0.2943 -0.9551 0.0339
vn 0.4214 -0.8748 0.2391
vn 0.5661 -0.6933 -0.4460
vn 0.1525 -0.9873 -0.0452
vn -0.0289 -0.9968 0.0746
vn -0.0675 -0.3733 0.9252
vn -0.0238 -0.6759 0.7366
vn 0.0849 -0.7811 0.6186
vn 0.0372 -0.9289 0.3684
vn 0.0921 -0.9856 0.1418
vn 0.1951 -0.9730 0.1230
vn 0.2313 -0.9685 0.0925
vn -0.1027 -0.9946 0.0117
vn -0.1952 -0.9805 -0.0221
vn -0.1084 -0.9914 0.0726
vn 0.3079 -0.8996 0.3096
vn 0.6600 -0.7471 0.0788
vn 0.5160 -0.8424 0.1549
vt 0.449513 0.459597
vt 0.471121 0.426766
vt 0.462526 0.458560
vt 0.426678 0.417440
vt 0.448758 0.410168
vt 0.474610 0.377437
vt 0.505048 0.374523
vt 0.407140 0.337933
vt 0.406102 0.388474
vt 0.442056 0.333275
vt 0.469295 0.281341
vt 0.509209 0.314726
vt 0.558733 0.298212
vt 0.611834 0.420634
vt 0.647031 0.427008
vt 0.639301 0.456944
vt 0.682782 0.382377
vt 0.665892 0.421237
vt 0.636840 0.361982
vt 0.586186 0.375634
vt 0.711922 0.322266
vt 0.663596 0.319754
vt 0.639583 0.290756
vt 0.810928 0.442193
vt 0.828163 0.411193
vt 0.837817 0.436687
vt 0.852163 0.406165
vt 0.779165 0.375313
vt 0.867848 0.371460
vt 0.820730 0.353776
vt 0.750978 0.297601
vt 0.785987 0.302742
vt 0.873161 0.303229
vt 0.835558 0.275318
vt 0.076238 0.437530
vt 0.097212 0.456152
vt 0.085228 0.462541
vt 0.008896 0.330330
vt 0.056227 0.326044
vt 0.047445 0.373095
vt 0.100444 0.426360
vt 0.066539 0.407597
vt 0.095381 0.399766
vt 0.120486 0.410972
vt 0.088750 0.367282
vt 0.126137 0.369864
vt 0.151378 0.367647
vt 0.141514 0.341629
vt 0.096690 0.327995
vt 0.009729 0.308439
vt 0.117043 0.284708
vt 0.240741 0.413913
vt 0.269458 0.427649
vt 0.252681 0.437660
vt 0.222676 0.364609
vt 0.259642 0.401108
vt 0.273509 0.449905
vt 0.295938 0.420521
vt 0.287857 0.384221
vt 0.268525 0.340188
vt 0.337450 0.329092
vt 0.338489 0.358478
vt 0.302077 0.313939
vt 0.199867 0.343602
vt 0.172077 0.264974
vt 0.389461 0.256477
vt 0.438553 0.264149
vt 0.424842 0.235170
vt 0.435427 0.207197
vt 0.470357 0.226386
vt 0.500994 0.262872
vt 0.503028 0.225057
vt 0.437230 0.177035
vt 0.482170 0.175894
vt 0.586837 0.178664
vt 0.646267 0.234227
vt 0.584645 0.219912
vt 0.587920 0.256092
vt 0.623499 0.189209
vt 0.698102 0.270608
vt 0.659456 0.168923
vt 0.692702 0.202433
vt 0.788069 0.233772
vt 0.819487 0.239646
vt 0.795375 0.195218
vt 0.875330 0.221686
vt 0.824911 0.165972
vt 0.858019 0.194238
vt 0.901796 0.264058
vt 0.068030 0.291746
vt 0.070903 0.192809
vt 0.101315 0.244990
vt 0.064490 0.244630
vt 0.095227 0.164834
vt 0.096262 0.195113
vt 0.033486 0.257969
vt 0.207259 0.259685
vt 0.221852 0.240242
vt 0.239822 0.218480
vt 0.307395 0.276561
vt 0.298536 0.233524
vt 0.236467 0.180548
vt 0.302072 0.197065
vt 0.307123 0.157260
vt 0.353387 0.233366
vt 0.534997 0.222005
vt 0.530133 0.188287
vt 0.536188 0.155475
vt 0.590382 0.134422
vt 0.727048 0.240524
vt 0.704797 0.157457
vt 0.779459 0.160651
vt 0.932257 0.240096
vt 0.923541 0.276359
vt 0.917929 0.199178
vt 0.950154 0.228585
vt 0.962048 0.190932
vt 0.878073 0.165157
vt 0.854746 0.163200
vt 0.913344 0.162796
vt 0.951837 0.163662
vt 0.989356 0.165636
vt 0.147819 0.186595
vt 0.189826 0.207010
vt 0.194876 0.178475
vt 0.137580 0.153929
vt 0.173164 0.140562
vt 0.213936 0.146315
vt 0.397029 0.219350
vt 0.362609 0.199941
vt 0.400429 0.174498
vt 0.422256 0.123307
vt 0.479846 0.127785
vt 0.543735 0.077137
vt 0.526271 0.035793
vt 0.556326 0.027504
vt 0.587984 0.085328
vt 0.693182 0.059048
vt 0.725165 0.043724
vt 0.676712 0.117254
vt 0.645568 0.142613
vt 0.725443 0.102446
vt 0.788795 0.128305
vt 0.777096 0.087902
vt 0.811519 0.158528
vt 0.876645 0.096694
vt 0.866729 0.123786
vt 0.843613 0.119500
vt 0.889853 0.136731
vt 0.918435 0.121611
vt 0.870518 0.066811
vt 0.908957 0.039964
vt 0.942807 0.085949
vt 0.969956 0.133281
vt 0.965009 0.108537
vt 0.342390 0.079944
vt 0.315149 0.121225
vt 0.369481 0.049680
vt 0.332940 0.053170
vt 0.113035 0.132874
vt 0.129108 0.112935
vt 0.149215 0.084109
vt 0.201823 0.068303
vt 0.234833 0.105798
vt 0.172987 0.024287
vt 0.178887 0.007252
vt 0.193183 0.019683
vt 0.227274 0.078731
vt 0.259524 0.134591
s 0
f 23/1/1 28/2/1 27/3/1
f 22/4/2 31/5/2 23/1/2
f 31/5/3 28/2/3 23/1/3
f 32/6/4 29/7/4 28/2/4
f 22/4/5 33/8/5 31/5/5
f 31/5/6 32/6/6 28/2/6
f 54/9/7 33/8/7 22/4/7
f 33/8/8 34/10/8 31/5/8
f 34/10/9 32/6/9 31/5/9
f 34/10/10 59/11/10 32/6/10
f 32/6/11 35/12/11 29/7/11
f 35/12/12 30/13/12 29/7/12
f 59/11/13 35/12/13 32/6/13
f 28/14/14 36/15/14 27/16/14
f 36/15/15 26/17/15 27/18/15
f 28/14/16 37/19/16 36/15/16
f 37/19/17 26/17/17 36/15/17
f 29/20/18 37/19/18 28/14/18
f 37/19/19 38/21/19 26/17/19
f 37/19/20 39/22/20 38/21/20
f 30/13/21 37/19/21 29/20/21
f 30/13/22 63/23/22 37/19/22
f 37/19/23 63/23/23 39/22/23
f 27/24/24 40/25/24 24/26/24
f 40/25/25 25/27/25 24/26/25
f 26/28/26 40/25/26 27/24/26
f 40/25/27 41/29/27 25/27/27
f 26/28/28 42/30/28 40/25/28
f 40/25/29 42/30/29 41/29/29
f 38/21/30 18/31/30 26/28/30
f 18/31/31 43/32/31 26/28/31
f 26/28/32 43/32/32 42/30/32
f 42/30/33 44/33/33 41/29/33
f 43/32/34 67/34/34 42/30/34
f 67/34/35 44/33/35 42/30/35
f 24/35/36 23/36/36 27/37/36
f 44/38/37 50/39/37 41/40/37
f 24/35/38 45/41/38 23/36/38
f 24/35/39 25/42/39 45/41/39
f 25/42/40 46/43/40 45/41/40
f 45/41/41 46/43/41 20/44/41
f 41/40/42 47/45/42 25/42/42
f 25/42/43 47/45/43 46/43/43
f 47/45/44 48/46/44 46/43/44
f 46/43/45 48/46/45 20/44/45
f 20/44/46 48/46/46 21/47/46
f 48/46/47 49/48/47 21/47/47
f 50/39/48 51/49/48 41/40/48
f 41/40/49 51/49/49 47/45/49
f 47/45/50 51/49/50 48/46/50
f 51/49/51 49/48/51 48/46/51
f 44/38/52 14/50/52 50/39/52
f 51/49/53 69/51/53 49/48/53
f 20/52/54 52/53/54 45/54/54
f 21/55/55 53/56/55 20/52/55
f 45/54/56 52/53/56 23/57/56
f 52/53/57 22/58/57 23/57/57
f 20/52/58 53/56/58 52/53/58
f 53/56/59 22/58/59 52/53/59
f 53/56/60 54/59/60 22/58/60
f 53/56/61 56/60/61 54/59/61
f 55/61/62 33/62/62 54/59/62
f 21/55/63 56/60/63 53/56/63
f 56/60/64 55/61/64 54/59/64
f 56/60/65 57/63/65 55/61/65
f 49/64/66 72/65/66 21/55/66
f 72/65/67 56/60/67 21/55/67
f 55/61/68 98/66/68 33/8/68
f 98/66/69 58/67/69 33/8/69
f 58/67/70 34/10/70 33/8/70
f 5/68/71 58/67/71 98/66/71
f 58/67/72 59/11/72 34/10/72
f 101/69/73 60/70/73 5/68/73
f 5/68/74 60/70/74 58/67/74
f 60/70/75 59/11/75 58/67/75
f 61/71/76 35/12/76 59/11/76
f 60/70/77 62/72/77 59/11/77
f 62/72/78 61/71/78 59/11/78
f 103/73/79 19/74/79 101/69/79
f 101/69/80 19/74/80 60/70/80
f 61/71/81 30/13/81 35/12/81
f 79/75/82 64/76/82 78/77/82
f 76/78/83 63/23/83 30/13/83
f 78/77/84 64/76/84 76/78/84
f 76/78/85 64/76/85 63/23/85
f 79/75/86 81/79/86 64/76/86
f 64/76/87 65/80/87 63/23/87
f 63/23/88 65/80/88 39/22/88
f 65/80/89 38/21/89 39/22/89
f 81/79/90 16/81/90 64/76/90
f 16/81/91 15/82/91 64/76/91
f 15/82/92 65/80/92 64/76/92
f 84/83/93 66/84/93 18/31/93
f 18/31/94 66/84/94 43/32/94
f 66/84/95 67/34/95 43/32/95
f 84/83/96 17/85/96 66/84/96
f 66/84/97 68/86/97 67/34/97
f 87/87/98 8/88/98 17/85/98
f 17/85/99 8/88/99 66/84/99
f 8/88/100 68/86/100 66/84/100
f 67/34/101 68/86/101 44/33/101
f 68/86/102 14/89/102 44/33/102
f 13/90/103 50/39/103 14/50/103
f 10/91/104 70/92/104 11/93/104
f 9/94/105 71/95/105 10/91/105
f 13/90/106 51/49/106 50/39/106
f 12/96/107 11/93/107 13/90/107
f 11/93/108 69/51/108 13/90/108
f 13/90/109 69/51/109 51/49/109
f 11/93/110 70/92/110 69/51/110
f 10/91/111 71/95/111 70/92/111
f 69/51/112 72/65/112 49/48/112
f 70/92/113 72/65/113 69/51/113
f 72/65/114 93/97/114 56/60/114
f 7/98/115 57/63/115 93/97/115
f 93/97/116 57/63/116 56/60/116
f 6/99/117 73/100/117 7/98/117
f 7/98/118 73/100/118 57/63/118
f 6/99/119 74/101/119 73/100/119
f 96/102/120 75/103/120 6/99/120
f 6/99/121 75/103/121 74/101/121
f 73/100/122 55/61/122 57/63/122
f 96/102/123 104/104/123 75/103/123
f 74/101/124 4/105/124 73/100/124
f 61/71/125 76/78/125 30/13/125
f 62/72/126 77/106/126 61/71/126
f 61/71/127 77/106/127 76/78/127
f 77/106/128 78/77/128 76/78/128
f 60/70/129 19/74/129 62/72/129
f 19/74/130 80/107/130 62/72/130
f 62/72/131 80/107/131 77/106/131
f 77/106/132 80/107/132 78/77/132
f 80/107/133 79/75/133 78/77/133
f 82/108/134 79/75/134 80/107/134
f 19/74/135 82/108/135 80/107/135
f 79/75/136 106/109/136 81/79/136
f 106/109/137 16/81/137 81/79/137
f 65/80/138 18/31/138 38/21/138
f 65/80/139 83/110/139 18/31/139
f 83/110/140 84/83/140 18/31/140
f 15/82/141 83/110/141 65/80/141
f 83/110/142 17/85/142 84/83/142
f 15/82/143 17/85/143 83/110/143
f 16/81/144 85/111/144 15/82/144
f 15/82/145 86/112/145 17/85/145
f 85/111/146 86/112/146 15/82/146
f 86/112/147 87/87/147 17/85/147
f 14/89/148 12/113/148 13/114/148
f 68/86/149 88/115/149 14/89/149
f 14/89/150 88/115/150 12/113/150
f 88/115/151 11/116/151 12/113/151
f 88/115/152 10/117/152 11/116/152
f 8/88/153 89/118/153 68/86/153
f 68/86/154 89/118/154 88/115/154
f 87/87/155 90/119/155 8/88/155
f 90/119/156 89/118/156 8/88/156
f 89/118/157 91/120/157 88/115/157
f 91/120/158 92/121/158 88/115/158
f 88/115/159 92/121/159 10/117/159
f 92/121/160 9/122/160 10/117/160
f 71/95/161 95/123/161 70/92/161
f 72/65/162 94/124/162 93/97/162
f 94/124/163 7/98/163 93/97/163
f 70/92/164 95/123/164 72/65/164
f 95/123/165 94/124/165 72/65/165
f 94/124/166 6/99/166 7/98/166
f 94/124/167 97/125/167 6/99/167
f 97/125/168 96/102/168 6/99/168
f 9/94/169 95/123/169 71/95/169
f 95/123/170 97/125/170 94/124/170
f 9/94/171 120/126/171 95/123/171
f 120/126/172 97/125/172 95/123/172
f 120/126/173 121/127/173 97/125/173
f 121/127/174 122/128/174 97/125/174
f 97/125/175 122/128/175 96/102/175
f 73/100/176 98/66/176 55/61/176
f 73/100/177 4/105/177 98/66/177
f 99/129/178 5/68/178 98/66/178
f 4/105/179 99/129/179 98/66/179
f 75/103/180 100/130/180 74/101/180
f 74/101/181 100/130/181 4/105/181
f 4/105/182 100/130/182 99/129/182
f 99/129/183 101/69/183 5/68/183
f 100/130/184 102/131/184 99/129/184
f 99/129/185 102/131/185 101/69/185
f 102/131/186 103/73/186 101/69/186
f 75/103/187 104/104/187 100/130/187
f 104/104/188 102/131/188 100/130/188
f 102/131/189 1/132/189 103/73/189
f 1/133/190 19/74/190 103/73/190
f 1/133/191 82/108/191 19/74/191
f 105/134/192 106/109/192 1/133/192
f 1/133/193 106/109/193 82/108/193
f 1/133/194 118/135/194 105/134/194
f 106/109/195 79/75/195 82/108/195
f 118/135/196 107/136/196 105/134/196
f 105/134/197 3/137/197 106/109/197
f 105/138/198 107/139/198 3/140/198
f 106/141/199 3/140/199 16/81/199
f 3/140/200 85/111/200 16/81/200
f 108/142/201 85/111/201 3/140/201
f 107/139/202 108/142/202 3/140/202
f 109/143/203 86/112/203 85/111/203
f 108/142/204 109/143/204 85/111/204
f 108/142/205 110/144/205 109/143/205
f 107/139/206 110/144/206 108/142/206
f 109/143/207 87/145/207 86/112/207
f 110/146/208 111/147/208 109/148/208
f 109/148/209 90/119/209 87/87/209
f 109/148/210 111/147/210 90/119/210
f 111/147/211 89/118/211 90/119/211
f 111/147/212 112/149/212 89/118/212
f 112/149/213 91/120/213 89/118/213
f 110/146/214 113/150/214 111/147/214
f 111/147/215 113/150/215 112/149/215
f 112/149/216 113/150/216 91/120/216
f 107/151/217 2/152/217 110/146/217
f 110/146/218 114/153/218 113/150/218
f 113/150/219 92/121/219 91/120/219
f 2/152/220 114/153/220 110/146/220
f 113/150/221 115/154/221 92/121/221
f 114/153/222 116/155/222 113/150/222
f 113/150/223 116/155/223 115/154/223
f 115/154/224 9/122/224 92/121/224
f 102/131/225 117/156/225 1/132/225
f 104/104/226 117/156/226 102/131/226
f 104/104/227 119/157/227 117/156/227
f 117/156/228 118/158/228 1/132/228
f 117/156/229 123/159/229 118/158/229
f 115/160/230 120/126/230 9/94/230
f 116/161/231 120/126/231 115/160/231
f 116/161/232 121/127/232 120/126/232
f 114/162/233 121/127/233 116/161/233
f 114/162/234 123/163/234 121/127/234
f 123/163/235 122/128/235 121/127/235
f 123/163/236 119/164/236 122/128/236
f 2/165/237 123/163/237 114/162/237
f 107/166/238 118/167/238 2/165/238
f 2/165/239 118/167/239 123/163/239
f 117/168/240 119/164/240 123/163/240
f 122/128/241 119/169/241 96/102/241
f 119/169/242 104/104/242 96/102/242
