# Blender 3.6.4
# www.blender.org
mtllib rock_01.mtl
o Icosphere
v -0.137264 -0.005998 -0.011252
v -0.074346 -0.018825 -0.476109
v 0.883073 0.183607 -0.235336
v 0.850111 0.118417 -0.087613
v 0.631146 0.132285 0.375607
v -0.451001 0.527620 0.695960
v -0.378926 0.140222 -0.573873
v -0.621120 0.666757 -0.128614
v -0.523732 0.737693 -0.374113
v -0.081887 0.424915 -0.892558
v 0.098156 1.065629 -0.417293
v -0.063697 1.135308 -0.157688
v -0.250027 0.959946 0.277505
v -0.198091 1.160381 -0.361817
v 0.173069 0.890109 -0.596979
v 0.070662 0.531137 -0.861867
v 0.757232 0.354169 -0.450554
v 0.019996 0.984613 -0.590806
v -0.158135 1.027877 -0.552827
v -0.363853 0.952438 -0.474796
v -0.075531 1.148263 -0.278832
v -0.369733 1.080895 -0.362454
v -0.365116 1.090941 -0.096706
v 0.312097 0.894988 -0.061559
v 0.179590 0.872049 0.227886
v 0.382121 0.549245 0.518904
v -0.086796 0.689752 0.639948
v 0.730803 0.541829 -0.196092
v 0.703196 0.486788 0.232775
v 0.895805 0.287663 -0.132584
v 0.719212 0.209774 -0.508280
v 0.522500 0.381037 -0.674884
v 0.393548 0.134662 -0.691684
v 0.165211 0.259434 -0.891624
v 0.110727 0.055034 -0.738031
v -0.240213 0.368395 -0.793465
v -0.502704 0.306694 -0.472945
v -0.516037 0.955515 -0.161897
v -0.668923 0.543098 0.220270
v -0.544225 0.704523 0.417131
v -0.349835 0.736867 0.559012
v -0.151883 0.438750 0.800554
v -0.325815 0.314989 0.781270
v 0.161013 0.406790 0.734788
v 0.389165 0.255284 0.622658
v 0.669110 0.347813 0.376113
v 0.814504 0.186785 0.135032
v -0.055679 0.155536 -0.865039
v -0.206392 0.206026 -0.807991
v -0.149561 0.036083 -0.695736
v -0.635634 0.469882 -0.171397
v -0.642306 0.423190 0.464070
v -0.522454 0.363758 0.675941
v -0.064068 0.236327 0.800412
v 0.109199 0.133454 0.717410
v -0.206610 0.104496 0.721588
v 0.155683 0.043657 0.581482
v 0.734227 0.102122 -0.373718
v 0.727265 0.059073 -0.160548
v 0.381324 0.045079 -0.419444
v 0.511000 0.024317 0.244298
v -0.303513 0.024947 -0.467632
v -0.598273 0.256775 -0.144140
v -0.496992 0.074592 0.168501
v -0.502005 0.127576 -0.163240
v -0.650048 0.244921 0.314549
v -0.589090 0.227119 0.516465
v -0.425286 0.030509 0.383035
v -0.397141 0.127029 0.666026
v -0.170203 0.015190 0.574833
v -0.062427 -0.021188 0.408387
vn -0.4747 0.7749 0.4173
vn 0.6664 0.6529 -0.3599
vn 0.6733 0.6267 -0.3923
vn 0.6217 0.5168 -0.5886
vn 0.8376 0.4775 -0.2652
vn 0.4640 0.4365 -0.7709
vn 0.4286 0.7291 -0.5335
vn 0.1836 0.8564 -0.4826
vn 0.0822 0.8268 -0.5564
vn 0.2854 0.5150 -0.8083
vn -0.0601 0.5072 -0.8597
vn -0.1527 0.4704 -0.8691
vn -0.4489 0.3949 -0.8016
vn -0.4658 0.5704 -0.6766
vn 0.4611 0.8859 0.0497
vn 0.2548 0.9369 -0.2395
vn 0.0282 0.9942 0.1036
vn -0.3396 0.7381 -0.5830
vn -0.1054 0.9762 0.1893
vn -0.0672 0.9351 0.3480
vn -0.4200 0.9071 -0.0270
vn -0.6638 0.7478 -0.0167
vn 0.5188 0.8495 0.0955
vn 0.4655 0.8397 0.2796
vn 0.2286 0.8651 0.4465
vn 0.3672 0.7393 0.5645
vn 0.2285 0.8270 0.5136
vn 0.6413 0.7671 -0.0177
vn 0.5601 0.7653 0.3171
vn 0.6640 0.7350 0.1371
vn 0.5305 0.7265 0.4367
vn 0.8177 0.5620 0.1248
vn 0.6356 0.4732 0.6100
vn 0.7205 -0.5001 -0.4805
vn 0.9086 0.2319 -0.3475
vn 0.8564 -0.0192 -0.5160
vn 0.6934 0.1026 -0.7132
vn 0.4788 -0.6587 -0.5804
vn 0.5199 -0.3187 -0.7926
vn 0.5516 -0.1624 -0.8182
vn 0.4395 0.2475 -0.8634
vn 0.3090 -0.8540 -0.4185
vn 0.2942 -0.6230 -0.7248
vn 0.0990 0.1423 -0.9849
vn -0.5801 0.2921 -0.7604
vn -0.7631 -0.1935 -0.6167
vn -0.7601 -0.1009 -0.6419
vn -0.7792 0.1037 -0.6181
vn -0.7107 0.2150 -0.6699
vn -0.7992 0.3746 -0.4701
vn -0.8427 0.3907 -0.3705
vn -0.9336 0.1405 -0.3297
vn -0.9131 0.3006 -0.2754
vn -0.9400 0.3412 -0.0079
vn -0.9902 0.0952 -0.1020
vn -0.7044 0.6631 0.2532
vn -0.8667 0.4717 0.1623
vn -0.4552 0.7693 0.4483
vn -0.5238 0.6291 0.5743
vn -0.0461 0.7908 0.6103
vn -0.1396 0.5886 0.7963
vn -0.1217 0.5572 0.8214
vn -0.4530 0.0892 0.8870
vn -0.2623 0.2223 0.9390
vn 0.2271 0.4824 0.8460
vn 0.3608 0.5648 0.7422
vn -0.5073 -0.3023 0.8070
vn 0.5688 0.2858 0.7712
vn 0.5793 0.2836 0.7642
vn 0.6783 -0.1212 0.7247
vn 0.8025 -0.1427 0.5793
vn 0.8923 0.1991 0.4052
vn 0.9073 0.2198 0.3585
vn 0.9558 -0.2010 0.2146
vn 0.4798 -0.8404 0.2520
vn 0.6287 -0.7095 0.3184
vn 0.9664 -0.2307 0.1138
vn -0.0686 -0.1080 -0.9918
vn -0.5219 -0.0325 -0.8524
vn -0.3890 -0.1310 -0.9119
vn 0.2016 -0.6222 -0.7565
vn -0.4511 -0.5920 -0.6678
vn -0.0371 -0.8067 -0.5898
vn -0.5718 -0.5767 -0.5835
vn -0.9026 0.0539 -0.4271
vn -0.9318 -0.2019 -0.3015
vn -0.8933 0.3570 0.2731
vn -0.7929 0.3586 0.4926
vn -0.7985 0.2833 0.5312
vn -0.9940 -0.0846 -0.0687
vn -0.9952 -0.0339 0.0920
vn -0.9452 -0.1846 0.2691
vn -0.8781 -0.1141 0.4647
vn -0.6838 -0.3879 0.6180
vn -0.0840 -0.0371 0.9958
vn 0.2138 0.0921 0.9725
vn 0.3667 -0.1296 0.9213
vn 0.3668 -0.1260 0.9217
vn 0.4678 -0.5180 0.7161
vn -0.1749 -0.3590 0.9168
vn 0.0624 -0.5610 0.8255
vn 0.3892 -0.7018 0.5967
vn -0.2996 -0.4135 0.8598
vn 0.3321 -0.8547 0.3990
vn 0.0826 -0.8183 0.5688
vn 0.0630 -0.8455 0.5302
vn 0.6085 -0.7672 -0.2028
vn 0.5029 -0.8503 -0.1553
vn 0.3730 -0.9200 0.1203
vn 0.1805 -0.9652 -0.1890
vn 0.0685 -0.9969 -0.0377
vn 0.1799 -0.9665 -0.1830
vn 0.1569 -0.9739 -0.1637
vn 0.0295 -0.9673 -0.2519
vn -0.1910 -0.9657 -0.1760
vn -0.5477 -0.7319 -0.4054
vn -0.1876 -0.9823 0.0017
vn -0.7027 -0.6729 -0.2313
vn -0.7931 -0.5533 -0.2547
vn -0.8432 -0.4381 -0.3116
vn -0.2132 -0.9769 0.0114
vn -0.5931 -0.7964 -0.1182
vn -0.8049 -0.5877 -0.0817
vn -0.9758 -0.1858 -0.1149
vn -0.7825 -0.6138 -0.1042
vn -0.7016 -0.7070 0.0892
vn -0.7061 -0.6916 0.1522
vn -0.2680 -0.9574 -0.1071
vn -0.6175 -0.7237 0.3082
vn 0.1332 -0.9901 0.0453
vn 0.0664 -0.9965 -0.0501
vn 0.0654 -0.9967 -0.0477
vn -0.3050 -0.8917 0.3345
vn -0.2358 -0.8550 0.4618
vn -0.1482 -0.9818 0.1186
vn 0.0787 -0.9621 0.2612
vn -0.1403 -0.9901 -0.0108
vn 0.1332 -0.9715 0.1961
vt 0.026060 0.277336
vt 0.054533 0.337462
vt 0.005682 0.324762
vt 0.411203 0.369658
vt 0.478370 0.411692
vt 0.452172 0.450280
vt 0.418705 0.324226
vt 0.461076 0.308934
vt 0.382383 0.334880
vt 0.522308 0.325405
vt 0.612100 0.421574
vt 0.632078 0.399048
vt 0.644878 0.447978
vt 0.670455 0.413334
vt 0.667408 0.378637
vt 0.574541 0.347515
vt 0.562488 0.286583
vt 0.707252 0.334183
vt 0.739776 0.335851
vt 0.790184 0.350967
vt 0.771366 0.391293
vt 0.811573 0.445401
vt 0.830805 0.410448
vt 0.834983 0.432431
vt 0.807479 0.391062
vt 0.860970 0.386050
vt 0.847962 0.345775
vt 0.885538 0.351903
vt 0.816220 0.298534
vt 0.071931 0.409649
vt 0.111422 0.424538
vt 0.088491 0.457829
vt 0.119923 0.374031
vt 0.108100 0.301151
vt 0.161847 0.340766
vt 0.254052 0.412632
vt 0.316171 0.373455
vt 0.274826 0.462128
vt 0.224579 0.379139
vt 0.269368 0.336589
vt 0.210069 0.324660
vt 0.331724 0.326550
vt 0.259191 0.292838
vt 0.398127 0.239164
vt 0.424599 0.276230
vt 0.372012 0.289703
vt 0.374194 0.290697
vt 0.461242 0.227366
vt 0.504229 0.258202
vt 0.499344 0.186121
vt 0.611259 0.254004
vt 0.639663 0.162130
vt 0.698561 0.192316
vt 0.581794 0.219340
vt 0.748027 0.269842
vt 0.778354 0.192410
vt 0.801197 0.237116
vt 0.872897 0.205114
vt 0.799966 0.173732
vt 0.919834 0.254514
vt 0.065343 0.280323
vt 0.071843 0.238213
vt 0.135588 0.246967
vt 0.084968 0.188202
vt 0.118829 0.205933
vt 0.179795 0.272131
vt 0.120533 0.141795
vt 0.222657 0.252124
vt 0.271182 0.231413
vt 0.306635 0.267323
vt 0.348315 0.254566
vt 0.300508 0.171349
vt 0.537452 0.219616
vt 0.554123 0.162807
vt 0.768881 0.141400
vt 0.923608 0.191511
vt 0.957307 0.222686
vt 0.974666 0.184343
vt 0.899626 0.140170
vt 0.947952 0.148872
vt 0.982797 0.137555
vt 0.164519 0.217007
vt 0.198971 0.199586
vt 0.157557 0.169015
vt 0.219219 0.167273
vt 0.175662 0.125448
vt 0.362070 0.218120
vt 0.417831 0.163636
vt 0.368708 0.049260
vt 0.462997 0.142823
vt 0.527580 0.105226
vt 0.589601 0.108302
vt 0.538825 0.033137
vt 0.680814 0.095666
vt 0.749231 0.108079
vt 0.651603 0.157246
vt 0.720389 0.020358
vt 0.736595 0.056921
vt 0.784091 0.098413
vt 0.842647 0.124478
vt 0.902111 0.085224
vt 0.946095 0.082348
vt 0.906453 0.022140
vt 0.424030 0.104605
vt 0.315762 0.089211
vt 0.139156 0.086002
vt 0.202067 0.100603
vt 0.190635 0.029643
s 0
f 40/1/1 13/2/1 23/3/1
f 28/4/2 15/5/2 11/6/2
f 28/4/3 17/7/3 15/5/3
f 17/7/4 32/8/4 15/5/4
f 30/9/5 17/7/5 28/4/5
f 32/8/6 16/10/6 15/5/6
f 15/11/7 18/12/7 11/13/7
f 18/12/8 14/14/8 11/13/8
f 18/12/9 19/15/9 14/14/9
f 16/16/10 18/12/10 15/11/10
f 16/16/11 19/15/11 18/12/11
f 16/16/12 10/17/12 19/15/12
f 10/17/13 20/18/13 19/15/13
f 20/19/14 22/20/14 19/21/14
f 11/22/15 21/23/15 12/24/15
f 14/25/16 21/23/16 11/22/16
f 14/25/17 12/26/17 21/23/17
f 19/21/18 22/20/18 14/25/18
f 14/25/19 23/27/19 12/26/19
f 23/27/20 13/28/20 12/26/20
f 22/20/21 23/27/21 14/25/21
f 22/20/22 38/29/22 23/27/22
f 12/30/23 24/31/23 11/32/23
f 12/30/24 25/33/24 24/31/24
f 12/30/25 13/2/25 25/33/25
f 25/33/26 27/34/26 26/35/26
f 13/2/27 27/34/27 25/33/27
f 24/36/28 28/37/28 11/38/28
f 25/39/29 29/40/29 24/36/29
f 24/36/30 29/40/30 28/37/30
f 26/41/31 29/40/31 25/39/31
f 29/40/32 30/42/32 28/37/32
f 26/41/33 46/43/33 29/40/33
f 58/44/34 31/45/34 3/46/34
f 3/47/35 17/7/35 30/9/35
f 3/46/36 31/45/36 17/7/36
f 31/45/37 32/8/37 17/7/37
f 58/44/38 33/48/38 31/45/38
f 33/48/39 34/49/39 31/45/39
f 31/45/40 34/49/40 32/8/40
f 32/8/41 34/49/41 16/10/41
f 35/50/42 33/48/42 58/44/42
f 35/50/43 34/49/43 33/48/43
f 34/49/44 10/17/44 16/10/44
f 36/51/45 20/19/45 10/17/45
f 7/52/46 37/53/46 49/54/46
f 49/54/47 37/53/47 36/51/47
f 37/53/48 9/55/48 36/51/48
f 36/51/49 9/55/49 20/19/49
f 9/55/50 22/20/50 20/19/50
f 9/55/51 38/29/51 22/20/51
f 51/56/52 8/57/52 9/55/52
f 9/55/53 8/57/53 38/29/53
f 8/57/54 39/58/54 38/29/54
f 51/59/55 39/58/55 8/57/55
f 38/29/56 40/60/56 23/27/56
f 39/58/57 40/60/57 38/29/57
f 40/1/58 41/61/58 13/2/58
f 40/1/59 6/62/59 41/61/59
f 41/61/60 27/34/60 13/2/60
f 41/61/61 6/62/61 27/34/61
f 6/62/62 42/63/62 27/34/62
f 53/64/63 43/65/63 6/62/63
f 43/65/64 42/63/64 6/62/64
f 42/63/65 44/66/65 27/34/65
f 27/34/66 44/66/66 26/35/66
f 69/67/67 43/65/67 53/64/67
f 44/66/68 45/68/68 26/41/68
f 45/68/69 46/43/69 26/41/69
f 45/68/70 5/69/70 46/43/70
f 5/69/71 47/70/71 46/43/71
f 46/43/72 47/70/72 29/40/72
f 47/70/73 30/42/73 29/40/73
f 47/70/74 4/71/74 30/42/74
f 61/72/75 4/71/75 5/69/75
f 5/69/76 4/71/76 47/70/76
f 4/71/77 3/46/77 30/42/77
f 34/49/78 48/73/78 10/17/78
f 10/17/79 49/54/79 36/51/79
f 48/73/80 49/54/80 10/17/80
f 34/49/81 35/50/81 48/73/81
f 48/73/82 50/74/82 49/54/82
f 35/50/83 50/74/83 48/73/83
f 50/74/84 7/52/84 49/54/84
f 9/55/85 37/53/85 51/56/85
f 37/53/86 63/75/86 51/56/86
f 39/58/87 52/76/87 40/60/87
f 40/60/88 52/76/88 6/77/88
f 52/76/89 53/78/89 6/77/89
f 51/59/90 66/79/90 39/58/90
f 39/58/91 66/79/91 52/76/91
f 66/79/92 67/80/92 52/76/92
f 52/76/93 67/80/93 53/78/93
f 67/80/94 69/81/94 53/78/94
f 43/65/95 54/82/95 42/63/95
f 42/63/96 54/82/96 44/66/96
f 54/82/97 45/68/97 44/66/97
f 54/82/98 55/83/98 45/68/98
f 45/68/99 55/83/99 5/69/99
f 43/65/100 56/84/100 54/82/100
f 54/82/101 56/84/101 55/83/101
f 55/83/102 57/85/102 5/69/102
f 69/67/103 56/84/103 43/65/103
f 57/85/104 61/72/104 5/69/104
f 56/84/105 57/85/105 55/83/105
f 56/84/106 70/86/106 57/85/106
f 4/71/107 58/44/107 3/46/107
f 4/71/108 59/87/108 58/44/108
f 61/72/109 59/87/109 4/71/109
f 59/87/110 60/88/110 58/44/110
f 59/87/111 1/89/111 60/88/111
f 60/88/112 35/50/112 58/44/112
f 60/90/113 2/91/113 35/50/113
f 2/91/114 50/74/114 35/50/114
f 2/91/115 62/92/115 50/74/115
f 62/92/116 7/52/116 50/74/116
f 1/93/117 62/92/117 2/91/117
f 62/94/118 65/95/118 7/96/118
f 65/95/119 63/75/119 7/96/119
f 7/96/120 63/75/120 37/53/120
f 1/97/121 64/98/121 62/94/121
f 64/98/122 65/95/122 62/94/122
f 65/95/123 64/99/123 63/75/123
f 63/100/124 66/79/124 51/59/124
f 63/100/125 64/101/125 66/79/125
f 64/101/126 68/102/126 66/79/126
f 68/102/127 67/80/127 66/79/127
f 1/103/128 68/102/128 64/101/128
f 68/102/129 69/81/129 67/80/129
f 60/88/130 1/89/130 2/104/130
f 61/72/131 1/89/131 59/87/131
f 61/72/132 71/105/132 1/89/132
f 68/106/133 70/86/133 69/67/133
f 70/86/134 56/84/134 69/67/134
f 68/106/135 71/107/135 70/86/135
f 71/107/136 57/85/136 70/86/136
f 1/108/137 71/107/137 68/106/137
f 71/107/138 61/72/138 57/85/138
